<?xml version="1.0" encoding="UTF-8" standalone="no"?>
<!DOCTYPE svg PUBLIC "-//W3C//DTD SVG 1.1//EN" "http://www.w3.org/Graphics/SVG/1.1/DTD/svg11.dtd">
<svg version="1.1" xmlns="http://www.w3.org/2000/svg" xmlns:xlink="http://www.w3.org/1999/xlink" preserveAspectRatio="xMidYMid meet" viewBox="200.64353434569674 206.21665683346725 237.43068416726263 194.74354512151012" width="233.43" height="190.74"><defs><path d="M419.55 359.32C418.99 359.33 418.54 359.18 418.15 358.75C417.32 357.83 416.26 357.22 415.21 356.61C410.88 354.05 406.54 351.51 402.21 348.95C394.53 344.4 386.84 339.85 379.17 335.28C375.14 332.87 371.16 330.39 367.14 327.98C364.11 326.17 361.04 324.43 358.01 322.62C353.14 319.71 348.3 316.76 343.44 313.84C338.22 310.72 332.93 307.7 327.81 304.4C325.74 303.08 323.72 301.67 322.16 299.73C317.2 293.54 318.03 286.25 323.8 280.61C325.44 279 327.46 277.97 329.61 277.2C333.16 275.94 336.58 274.42 339.41 271.84C342.78 268.78 344.22 264.94 344.08 260.42C343.79 251.29 336.11 244.95 329.08 243.82C319.85 242.33 310.66 248.93 309.27 258.19C309.07 259.58 309.02 261 308.79 262.39C308.28 265.4 305.64 267.77 302.64 267.99C299.75 268.21 296.98 266.4 296.06 263.67C295.57 262.23 295.66 260.73 295.7 259.24C296.04 245.98 306.36 233.59 320.35 230.8C330.01 228.88 338.65 230.91 346.21 237.21C352.15 242.16 355.8 248.5 357.14 256.15C358.17 262.04 357.64 267.71 354.98 273.11C351.8 279.56 346.73 284.06 340.41 287.27C338.56 288.22 336.65 289.01 334.65 289.58C333.91 289.79 333.12 290.01 333.03 290.98C332.93 291.96 333.61 292.39 334.33 292.8C337.96 294.91 341.59 297.02 345.22 299.13C348.78 301.2 352.34 303.27 355.89 305.34C358.87 307.08 361.83 308.85 364.81 310.59C367.3 312.04 369.81 313.45 372.31 314.89C374.95 316.41 377.58 317.94 380.22 319.48C384.59 322.04 388.97 324.6 393.34 327.18C403.36 333.11 413.38 339.05 423.39 345.01C425.8 346.44 428.08 348.06 430.02 350.11C432.3 352.52 433.91 355.34 434.99 358.48C435.19 359.07 435.05 359.35 434.35 359.34C431.84 359.31 429.34 359.33 426.83 359.33C426.83 359.32 426.83 359.32 426.83 359.32C424.41 359.32 421.98 359.31 419.55 359.32Z" id="bXILXXqoc"></path><path d="M355.75 215.42C367.62 223.34 374.88 234.39 377.64 248.37C379.81 259.35 378.18 269.87 373.81 280.07C371.83 284.67 369.84 289.27 367.31 293.58C365.4 296.84 363.4 300.05 361.35 303.23C360.98 303.79 360.45 303.73 360.02 303.5C357.65 302.17 355.32 300.8 352.97 299.45C352.42 299.13 352.89 298.83 353.03 298.61C354.38 296.38 355.74 294.14 357.15 291.94C361.06 285.83 364.15 279.32 366.44 272.45C373.32 251.76 362.32 228.73 342.08 221.35C335.98 219.12 329.71 218.33 323.22 218.91C317.44 219.43 311.86 220.61 306.64 223.25C298.61 227.31 292.86 233.63 288.74 241.5C285.33 248 284.07 254.97 284.6 262.3C285.11 269.28 287.32 275.74 290.37 281.95C292.09 285.45 293.96 288.85 295.87 292.25C296.14 292.74 296.09 292.94 295.61 293.2C293.37 294.43 291.16 295.71 288.94 296.96C288.04 297.46 287.8 297.4 287.32 296.5C284.22 290.76 281.02 285.07 278.63 278.98C276.08 272.51 274.57 265.84 274.34 258.86C273.94 247.11 277.62 236.72 284.6 227.4C289.22 221.22 294.87 216.25 301.78 212.74C307.46 209.86 313.52 208.33 319.81 207.6C322.25 207.31 324.7 207.25 327.15 207.22C337.51 207.07 347.12 209.66 355.75 215.42Z" id="eGux5Tmoq"></path><path d="M202.42 359.31C201.54 359.31 201.51 359.3 201.82 358.45C203.42 354.03 206.11 350.4 209.75 347.44C212.33 345.35 215.26 343.81 218.11 342.15C239.4 329.75 260.65 317.28 282 304.99C289.19 300.86 296.39 296.76 303.65 292.76C305.97 291.48 308.32 290.97 310.9 292.07C314.61 293.65 316.21 299.86 312.39 302.9C310.67 304.27 308.74 305.28 306.88 306.41C304.54 307.82 302.18 309.18 299.84 310.58C297.23 312.14 294.66 313.75 292.03 315.28C288.99 317.05 285.99 318.91 282.96 320.7C274.88 325.48 266.78 330.21 258.67 334.94C246.18 342.24 233.67 349.53 221.17 356.83C220.11 357.44 219.05 358.05 218.25 359.03C217.98 359.36 217.59 359.32 217.22 359.32C214.74 359.32 212.26 359.32 209.78 359.32C209.78 359.31 209.78 359.31 209.78 359.31C207.32 359.31 204.87 359.31 202.42 359.31Z" id="a9mN4JQ8rz"></path><path d="M322.15 344.29C319.08 340.74 315.97 337.22 313.03 333.57C308.43 327.83 303.97 321.98 299.81 315.91C299.39 315.31 299.46 315.08 300.07 314.73C302.44 313.35 304.78 311.93 307.11 310.49C307.61 310.18 307.83 310.24 308.17 310.71C312.67 316.96 317.54 322.93 322.63 328.72C323.37 329.57 324.18 330.31 325.29 330.68C326.95 331.22 328.36 330.81 329.5 329.57C333.19 325.57 336.75 321.45 340.04 317.12C340.53 316.47 340.86 316.42 341.54 316.85C343.67 318.21 345.85 319.47 348.01 320.79C348.99 321.38 349.01 321.48 348.37 322.43C344.77 327.79 340.71 332.8 336.53 337.72C334.51 340.09 332.4 342.39 330.33 344.72C329.23 345.94 328.01 346.48 326.53 346.45C324.75 346.38 323.3 345.62 322.15 344.29Z" id="j1ZcgKHN7k"></path><path d="M347.29 388.45C347.29 389 347.36 389.55 347.34 390.11C347.3 391 346.77 391.39 345.97 391.43C344.96 391.48 343.94 391.47 342.93 391.43C342.26 391.4 341.81 391.08 341.74 390.32C341.53 387.66 341.62 384.99 341.69 382.33C341.71 381.51 341.77 380.69 341.63 379.87C341.49 379.02 341.2 378.67 340.36 378.64C336.57 378.51 332.79 378.62 329.01 378.65C327.85 378.65 327.22 379.66 327.52 381.11C327.65 381.75 327.66 382.37 327.66 383C327.67 385.35 327.66 387.69 327.66 390.04C327.66 390.91 327.24 391.4 326.39 391.43C325.35 391.46 324.31 391.46 323.27 391.43C322.39 391.4 321.96 390.79 322 389.77C322.1 386.93 322.13 384.08 322.28 381.24C322.49 377.45 322.31 373.68 322.24 369.9C322.21 368.25 322.04 366.61 322 364.96C321.96 363.32 322.26 363.05 323.86 363.05C324.64 363.04 325.41 363.04 326.18 363.05C327.26 363.06 327.62 363.46 327.66 364.54C327.76 367.15 327.43 369.74 327.49 372.35C327.53 373.77 327.99 374.37 329.43 374.38C332.97 374.41 336.52 374.43 340.06 374.35C342.04 374.31 342.18 373.13 342.03 371.22C341.84 368.84 341.7 366.45 341.76 364.06C341.78 363.37 342.28 363.08 342.87 363.06C343.96 363.01 345.06 363.02 346.15 363.05C346.91 363.08 347.3 363.57 347.3 364.45C347.3 368.51 347.3 372.57 347.3 376.62C347.3 380.56 347.31 384.51 347.29 388.45Z" id="cslpsEXOF"></path><path d="M408.86 364.82C408.73 363.84 409.5 363 410.48 362.79C411.35 362.61 412.23 362.64 413.11 362.63C413.91 362.61 414.3 363.08 414.38 363.91C414.46 364.82 414.16 365.7 414.2 366.6C414.31 369.13 414.12 371.66 414.01 374.17C413.85 377.77 413.89 381.36 413.95 384.95C413.98 386.68 413.87 388.44 414.21 390.17C414.34 390.85 413.94 391.26 413.25 391.31C412.49 391.38 411.73 391.47 410.95 391.45C410.03 391.42 409.61 391.09 409.42 390.18C409.18 389.07 409.18 389.08 408.22 389.7C406.39 390.89 404.48 391.88 402.22 391.84C399.17 391.77 396.85 390.43 395.32 387.78C394.06 385.6 393.37 383.23 393.59 380.73C393.93 376.9 395.45 373.69 399.18 372.06C401.97 370.84 404.66 371.56 407.23 372.93C407.62 373.14 407.99 373.4 408.38 373.64C408.53 373.73 408.66 373.92 408.87 373.79C409.06 373.67 408.97 373.46 408.97 373.28C408.98 371.97 408.98 370.67 408.98 369.13C408.89 367.85 409.05 366.34 408.86 364.82ZM406.37 386.84C408.99 385.02 409.8 381.62 408.31 378.75C406.27 374.81 401.64 374.53 399.28 378.24C398.38 379.65 398.25 381.29 398.51 382.9C398.93 385.57 400.95 387.57 403.97 387.67C404.68 387.66 405.57 387.39 406.37 386.84Z" id="a2M3vKQZmh"></path><path d="M311.31 390.52C309.87 391.26 308.34 391.81 306.72 391.83C303.63 391.85 301.3 390.32 299.88 387.71C297.48 383.3 297.46 378.84 300.44 374.64C302.45 371.78 306.37 370.54 310.31 372.24C311.14 372.6 311.96 372.96 312.74 373.43C313.5 373.89 313.57 373.84 313.57 372.98C313.57 370.26 313.57 367.54 313.57 364.82C313.57 363.39 314.12 362.77 315.55 362.67C316.34 362.61 317.14 362.65 317.94 362.63C318.5 362.62 318.77 362.85 318.77 363.44C318.76 366.66 318.62 369.88 318.54 373.1C318.47 375.99 318.13 378.88 318.46 381.79C318.65 383.42 318.45 385.08 318.6 386.73C318.7 387.81 318.73 388.9 318.87 389.98C318.94 390.51 318.79 390.99 318.13 391.19C317.17 391.48 316.19 391.5 315.22 391.41C314.57 391.34 314.15 390.84 313.99 390.2C313.91 389.9 313.78 389.62 313.88 389.15C312.92 389.66 312.12 390.1 311.31 390.52ZM306.12 376.07C302.79 377.78 301.87 382.91 304.39 385.73C306.41 387.99 308.98 388.37 311.27 386.58C313.04 385.2 313.73 383.25 313.56 381.03C313.37 378.45 311.1 375.44 308.05 375.7C307.42 375.63 306.76 375.74 306.12 376.07Z" id="dakdttl2S"></path><path d="M351.67 375.31C354.27 371.68 359.97 369.65 364.39 373.2C364.7 373.45 364.97 373.74 365.26 374.02C365.65 374.4 365.9 374.43 366.07 373.81C366.56 371.96 366.57 371.98 368.51 371.96C368.92 371.95 369.3 372.04 369.68 372.14C370.12 372.25 370.37 372.56 370.39 373.06C370.43 374.07 370.4 375.07 370.22 376.06C370.06 376.95 370.01 377.85 369.98 378.74C369.88 381.5 369.95 384.26 370.26 387.01C370.37 387.99 370.34 388.96 370.38 389.94C370.41 390.56 370.12 390.94 369.53 391.09C369 391.22 368.46 391.39 367.92 391.42C366.82 391.5 365.98 391.51 365.55 390.02C365.36 389.37 364.9 389.48 364.48 389.75C363.45 390.4 362.41 391.06 361.25 391.42C358.5 392.29 355.98 391.96 353.68 390.06C351.72 388.44 350.49 386.45 349.98 383.98C349.85 383.32 349.96 382.66 349.91 382.21C349.86 379.6 350.25 377.3 351.67 375.31ZM355.64 385.06C357.31 388 361.68 388.68 363.87 385.81C365.65 383.46 365.79 380.63 364.25 378.06C362.94 375.84 360.51 375.03 358.17 376.08C355.84 377.13 354.76 379.02 354.68 381.52C354.69 382.91 354.96 383.86 355.64 385.06Z" id="asHwujpUk"></path><path d="M209.81 386.14C211.35 385.63 212.13 384.49 212.27 382.99C212.38 381.73 211.56 380.82 210.58 380.11C209.13 379.05 207.49 378.32 205.95 377.41C202.14 375.16 201.46 369.5 204.26 366.25C207.12 362.94 212 361.78 216.35 363.88C216.9 364.15 217.47 364.36 217.96 364.74C218.53 365.19 218.75 365.73 218.34 366.39C217.95 367.02 217.73 367.72 217.51 368.42C217.17 369.55 216.66 369.8 215.54 369.44C214.25 369.02 212.99 368.49 211.63 368.32C210.6 368.2 208.69 368.54 208.2 369.71C207.61 371.12 207.92 372.35 209.23 373.34C210.46 374.28 211.9 374.84 213.24 375.6C215.55 376.92 217.24 378.72 217.7 381.41C218.14 383.98 217.51 386.29 215.7 388.24C213.81 390.28 211.45 391.34 208.71 391.71C207.54 391.86 206.39 391.85 205.22 391.84C204.48 391.84 203.99 391.44 203.78 390.8C203.43 389.72 203.14 388.62 203.11 387.47C203.1 386.9 203.32 386.62 203.91 386.65C204.5 386.68 205.08 386.66 205.91 386.66C207.08 386.72 208.46 386.59 209.81 386.14Z" id="a74BllQnUq"></path><path d="M225.97 372.39C232.13 369.27 237.93 373.85 238.82 378.53C238.96 379.29 238.96 380.08 238.85 380.83C238.68 381.99 237.77 382.69 236.22 382.85C234.65 383.01 233.07 383.05 231.49 383.17C229.75 383.29 228.01 383.46 226.25 383.46C225.55 383.46 225.31 383.96 225.68 384.64C226.54 386.22 227.86 387.24 229.65 387.5C231.94 387.84 233.98 387.22 235.78 385.78C236.64 385.1 237.04 385.16 237.65 386.05C237.92 386.44 238.19 386.83 238.34 387.29C238.63 388.25 238.4 389.02 237.59 389.6C235.75 390.95 233.73 391.75 231.4 391.86C228.66 391.99 226.16 391.44 223.94 389.78C221.97 388.3 220.91 386.3 220.46 383.92C220.33 383.25 220.26 382.57 220.3 381.86C220.48 377.69 222.1 374.35 225.97 372.39ZM232.83 379.18C233.79 379 233.9 378.59 233.42 377.69C232.55 376.05 231.09 375.55 229.36 375.7C227.72 375.84 226.4 376.61 225.51 378.01C225.21 378.49 225.24 379.13 225.59 379.58C225.88 379.96 226.43 380.03 226.91 379.9C227.36 379.79 227.8 379.85 228.25 379.83C229.8 379.76 231.32 379.47 232.83 379.18Z" id="bkjmAeGbE"></path><path d="M434.52 378.48C434.58 380.31 434.16 382.11 433.11 383.66C430.29 387.81 427.46 391.94 424.59 396.05C423.77 397.22 422.45 397.63 421.1 397.84C420.57 397.92 420.04 397.96 419.51 397.96C418.08 397.97 417.23 397.33 416.82 395.96C416.78 395.83 416.73 395.71 416.7 395.58C416.35 393.74 416.47 393.56 418.34 393.5C419.15 393.47 419.92 393.32 420.64 392.96C422.2 392.19 422.57 390.95 421.72 389.44C420.7 387.63 419.45 385.99 418.15 384.39C416.69 382.6 416 380.54 415.98 378.24C415.96 376.85 415.96 375.47 415.98 374.08C415.99 373.51 416.03 372.92 416.16 372.36C416.28 371.84 416.58 371.46 417.24 371.63C417.94 371.81 418.65 371.89 419.37 371.81C420.4 371.71 420.97 372.19 421.05 373.5C421.11 374.58 420.95 375.65 420.79 376.73C420.64 377.76 420.93 378.82 421.26 379.82C422.02 382.1 423.28 384.1 424.87 385.89C425.47 386.58 425.7 386.53 426.28 385.78C428.04 383.48 429.31 380.95 429.71 378.05C429.87 376.86 429.86 375.65 429.6 374.48C429.48 373.98 429.48 373.48 429.48 372.98C429.48 372.11 429.73 371.86 430.62 371.82C431.35 371.79 432.09 371.83 432.83 371.69C433.73 371.52 434.23 372.02 434.25 372.93C434.26 373.38 434.25 373.83 434.25 374.47C434.23 375.69 434.48 377.09 434.52 378.48Z" id="a30jiom1Cz"></path><path d="M291.01 378.84C290.99 378.05 290.78 377.31 290.26 376.65C289.23 375.36 287.58 375.38 285.92 376.26C284.29 377.13 283.19 378.41 283.26 380.49C283.35 383.56 283.28 386.62 283.28 389.69C283.28 390.84 282.75 391.39 281.6 391.43C281.12 391.45 280.64 391.45 280.16 391.43C278.55 391.38 278.02 390.29 278.1 388.93C278.28 385.67 278.5 382.42 278.24 379.14C278.11 377.43 277.9 375.74 277.63 374.05C277.45 372.95 277.8 372.55 278.89 372.36C279.7 372.23 280.5 372.04 281.31 371.98C282.42 371.88 282.78 372.23 282.85 373.34C282.88 373.67 282.86 373.99 283.2 374.16C283.61 374.36 283.84 374.03 284.1 373.82C286.01 372.24 288.12 371.2 290.68 371.35C293.57 371.52 295.77 373.38 295.96 376.56C296.19 380.47 295.99 384.39 296.09 388.3C296.1 388.8 296.19 389.3 296.2 389.8C296.21 390.88 295.78 391.36 294.69 391.43C293.95 391.47 293.2 391.47 292.45 391.43C291.47 391.37 291.01 390.79 291.01 389.63C291 387.82 291 386.01 291 384.2C291.01 384.2 291.01 384.2 291.02 384.2C291.02 382.41 291.04 380.63 291.01 378.84Z" id="b2HgTepnVt"></path><path d="M391.5 390C391.5 391.08 391.08 391.48 390.02 391.46C389.44 391.44 388.85 391.44 388.27 391.44C386.84 391.44 386.34 391.02 386.42 389.62C386.59 386.45 386.57 383.29 386.55 380.12C386.54 379.51 386.49 378.9 386.38 378.3C385.93 375.95 384.18 375.09 381.84 376.04C379.67 376.91 378.84 378.28 378.69 380.65C378.55 382.78 378.5 384.9 378.61 387.03C378.66 387.86 378.61 388.71 378.83 389.54C379.02 390.26 378.43 391.1 377.62 391.32C376.61 391.59 375.58 391.57 374.57 391.28C373.81 391.07 373.62 390.45 373.62 389.73C373.62 386.27 373.59 382.8 373.61 379.34C373.63 377.58 373.4 375.85 373 374.15C372.83 373.42 373.05 372.87 373.69 372.67C374.72 372.36 375.75 371.98 376.85 371.96C377.68 371.95 378.09 372.32 378.24 373.15C378.25 373.21 378.23 373.26 378.24 373.31C378.43 374.39 378.58 374.47 379.46 373.83C381 372.69 382.61 371.7 384.56 371.44C387.9 370.98 391 372.58 391.37 376.6C391.59 379.02 391.36 381.44 391.5 383.47C391.5 385.9 391.5 387.95 391.5 390Z" id="a45F9lqpbk"></path><path d="M256.33 383.14C256.07 380.58 256.37 378.18 257.76 375.98C259.38 373.43 261.81 372.08 264.7 371.52C269.96 370.5 274.82 374.28 275.78 379.47C276.42 382.93 275.72 386.24 273.21 388.88C271.35 390.85 269.02 391.97 266.25 391.84C261.38 392 256.84 388.04 256.33 383.14ZM262.78 376.95C259.92 379.64 260.07 383.97 263.02 386.54C264.84 388.13 268.23 388.16 269.84 385.95C271.14 384.15 271.6 382.22 271.19 380.06C270.71 377.48 268.62 375.7 266.09 375.69C264.8 375.61 263.71 376.08 262.78 376.95Z" id="mmEc5SpGP"></path><path d="M244.65 372.63C247.66 370.97 250.79 370.97 253.93 372.33C254.36 372.52 254.65 372.85 254.74 373.34C254.89 374.05 254.8 374.75 254.61 375.43C254.39 376.19 253.78 376.46 252.99 376.32C252.36 376.22 251.78 376 251.18 375.84C248.24 375.07 245.17 377.54 244.62 380.28C244.02 383.24 245.41 385.63 247.31 386.79C248.69 387.64 250.19 387.72 251.73 387.27C251.86 387.23 251.99 387.2 252.11 387.17C252.85 386.97 253.61 386.58 254.24 387.36C254.78 388.03 254.91 389.75 254.51 390.41C254.2 390.92 253.65 391.14 253.14 391.28C248.01 392.73 241.39 390.71 239.88 384.3C239.67 383.42 239.66 382.53 239.65 381.62C239.6 377.67 241.15 374.57 244.65 372.63Z" id="a3TQG3ei0U"></path></defs><g><g><use xlink:href="#bXILXXqoc" opacity="1" fill="#010101" fill-opacity="1"></use><g><use xlink:href="#bXILXXqoc" opacity="1" fill-opacity="0" stroke="#000000" stroke-width="1" stroke-opacity="0"></use></g></g><g><use xlink:href="#eGux5Tmoq" opacity="1" fill="#010101" fill-opacity="1"></use><g><use xlink:href="#eGux5Tmoq" opacity="1" fill-opacity="0" stroke="#000000" stroke-width="1" stroke-opacity="0"></use></g></g><g><use xlink:href="#a9mN4JQ8rz" opacity="1" fill="#010101" fill-opacity="1"></use><g><use xlink:href="#a9mN4JQ8rz" opacity="1" fill-opacity="0" stroke="#000000" stroke-width="1" stroke-opacity="0"></use></g></g><g><use xlink:href="#j1ZcgKHN7k" opacity="1" fill="#010101" fill-opacity="1"></use><g><use xlink:href="#j1ZcgKHN7k" opacity="1" fill-opacity="0" stroke="#000000" stroke-width="1" stroke-opacity="0"></use></g></g><g><use xlink:href="#cslpsEXOF" opacity="1" fill="#030303" fill-opacity="1"></use><g><use xlink:href="#cslpsEXOF" opacity="1" fill-opacity="0" stroke="#000000" stroke-width="1" stroke-opacity="0"></use></g></g><g><use xlink:href="#a2M3vKQZmh" opacity="1" fill="#030303" fill-opacity="1"></use><g><use xlink:href="#a2M3vKQZmh" opacity="1" fill-opacity="0" stroke="#000000" stroke-width="1" stroke-opacity="0"></use></g></g><g><use xlink:href="#dakdttl2S" opacity="1" fill="#030303" fill-opacity="1"></use><g><use xlink:href="#dakdttl2S" opacity="1" fill-opacity="0" stroke="#000000" stroke-width="1" stroke-opacity="0"></use></g></g><g><use xlink:href="#asHwujpUk" opacity="1" fill="#030303" fill-opacity="1"></use><g><use xlink:href="#asHwujpUk" opacity="1" fill-opacity="0" stroke="#000000" stroke-width="1" stroke-opacity="0"></use></g></g><g><use xlink:href="#a74BllQnUq" opacity="1" fill="#030303" fill-opacity="1"></use><g><use xlink:href="#a74BllQnUq" opacity="1" fill-opacity="0" stroke="#000000" stroke-width="1" stroke-opacity="0"></use></g></g><g><use xlink:href="#bkjmAeGbE" opacity="1" fill="#030303" fill-opacity="1"></use><g><use xlink:href="#bkjmAeGbE" opacity="1" fill-opacity="0" stroke="#000000" stroke-width="1" stroke-opacity="0"></use></g></g><g><use xlink:href="#a30jiom1Cz" opacity="1" fill="#030303" fill-opacity="1"></use><g><use xlink:href="#a30jiom1Cz" opacity="1" fill-opacity="0" stroke="#000000" stroke-width="1" stroke-opacity="0"></use></g></g><g><use xlink:href="#b2HgTepnVt" opacity="1" fill="#030303" fill-opacity="1"></use><g><use xlink:href="#b2HgTepnVt" opacity="1" fill-opacity="0" stroke="#000000" stroke-width="1" stroke-opacity="0"></use></g></g><g><use xlink:href="#a45F9lqpbk" opacity="1" fill="#030303" fill-opacity="1"></use><g><use xlink:href="#a45F9lqpbk" opacity="1" fill-opacity="0" stroke="#000000" stroke-width="1" stroke-opacity="0"></use></g></g><g><use xlink:href="#mmEc5SpGP" opacity="1" fill="#030303" fill-opacity="1"></use><g><use xlink:href="#mmEc5SpGP" opacity="1" fill-opacity="0" stroke="#000000" stroke-width="1" stroke-opacity="0"></use></g></g><g><use xlink:href="#a3TQG3ei0U" opacity="1" fill="#030303" fill-opacity="1"></use><g><use xlink:href="#a3TQG3ei0U" opacity="1" fill-opacity="0" stroke="#000000" stroke-width="1" stroke-opacity="0"></use></g></g></g></svg>