<?xml version="1.0" encoding="UTF-8" standalone="no"?>
<svg
   xmlns:dc="http://purl.org/dc/elements/1.1/"
   xmlns:cc="http://creativecommons.org/ns#"
   xmlns:rdf="http://www.w3.org/1999/02/22-rdf-syntax-ns#"
   xmlns:svg="http://www.w3.org/2000/svg"
   xmlns="http://www.w3.org/2000/svg"
   id="svg8"
   version="1.1"
   viewBox="0 0 276.75418 186.43922"
   height="186.43922mm"
   width="276.75418mm">
  <defs
     id="defs2" />
  <metadata
     id="metadata5">
    <rdf:RDF>
      <cc:Work
         rdf:about="">
        <dc:format>image/svg+xml</dc:format>
        <dc:type
           rdf:resource="http://purl.org/dc/dcmitype/StillImage" />
        <dc:title></dc:title>
      </cc:Work>
    </rdf:RDF>
  </metadata>
  <g
     transform="translate(61.269958,-61.215496)"
     id="layer1">
    <g
       transform="matrix(0.26458333,0,0,0.26458333,-61.269929,54.547656)"
       id="g986">
      <path
         style="opacity:0.1;fill:#f68903"
         d="M 494.15,178.37 A 246.62,246.62 0 0 0 197.81,145 c 94.98,34 199.78,35.25 296.34,33.37 z"
         transform="translate(-77,-85.07)"
         id="path817" />
      <path
         style="opacity:0.1;fill:#f68903"
         d="M 1044.64,730.55 940.92,550.9 a 3.3,3.3 0 0 0 -5.73,0 L 831.47,730.55 a 3.3,3.3 0 0 0 2.86,5 h 30.94 a 3.32,3.32 0 0 1 3.31,3.31 v 38.34 a 3.31,3.31 0 0 0 3.3,3.31 h 40.37 a 3.31,3.31 0 0 0 3.31,-3.31 v -18.53 a 3.3,3.3 0 0 1 3.3,-3.3 h 38.38 a 3.31,3.31 0 0 1 3.31,3.3 v 18.53 a 3.31,3.31 0 0 0 3.31,3.31 h 40.36 a 3.31,3.31 0 0 0 3.31,-3.31 v -38.38 a 3.31,3.31 0 0 1 3.31,-3.31 h 30.94 a 3.31,3.31 0 0 0 2.86,-4.96 z M 900,750.43 a 3.3,3.3 0 0 1 -2.34,1 h -14.53 a 3.31,3.31 0 0 1 0,-6.62 h 14.56 a 3.31,3.31 0 0 1 2.34,5.65 z m 95.28,0 a 3.3,3.3 0 0 1 -2.34,1 h -14.52 a 3.31,3.31 0 0 1 0,-6.62 H 993 a 3.31,3.31 0 0 1 2.34,5.65 z"
         transform="translate(-77,-85.07)"
         id="path819" />
      <path
         style="opacity:0.1;fill:#f68903"
         d="M 403.55,732.13 299.83,552.48 a 3.31,3.31 0 0 0 -5.73,0 L 204.51,707.65 A 273.67,273.67 0 0 0 242,746.36 h 14.6 a 3.31,3.31 0 0 1 0,6.62 h -6.16 a 160.29,160.29 0 0 0 24,14.93 v -7.65 a 3.31,3.31 0 0 1 3.31,-3.31 h 38.38 a 3.31,3.31 0 0 1 3.3,3.31 v 18.52 a 3.22,3.22 0 0 0 0.31,1.39 3.31,3.31 0 0 0 3,1.92 h 40.37 a 3.24,3.24 0 0 0 2.63,-1.33 3.18,3.18 0 0 0 0.67,-2 v -38.35 a 3.31,3.31 0 0 1 3.31,-3.31 h 30.94 a 3.31,3.31 0 0 0 2.89,-4.97 z M 335,747.33 a 3.3,3.3 0 0 1 2.34,-1 h 14.56 a 3.31,3.31 0 0 1 0,6.62 h -14.57 a 3.31,3.31 0 0 1 -2.34,-5.65 z m -65.15,-66.48 a 3.31,3.31 0 0 1 -3.31,-3.31 V 652.4 a 3.31,3.31 0 0 1 3.31,-3.31 h 54.25 a 3.31,3.31 0 0 1 3.3,3.31 v 25.14 a 3.31,3.31 0 0 1 -3.3,3.31 z"
         transform="translate(-77,-85.07)"
         id="path821" />
      <path
         style="opacity:0.1;fill:#f68903"
         d="M 813.53,409.41 H 685.18 v -27.76 a 6.64,6.64 0 0 0 -6.64,-6.64 h -37.69 v -29.57 a 4.18,4.18 0 0 0 -4.18,-4.18 h -48.55 a 4.18,4.18 0 0 0 -4.18,4.18 V 375 h -44.31 a 6.64,6.64 0 0 0 -6.64,6.64 V 409.4 H 410.6 a 1.35,1.35 0 0 0 -1.34,1.35 v 368.53 a 1.35,1.35 0 0 0 1.34,1.35 h 81.34 a 1.35,1.35 0 0 0 1.35,-1.35 V 729.7 a 1.36,1.36 0 0 1 1.35,-1.35 H 529 a 1.36,1.36 0 0 1 1.35,1.35 v 49.58 a 1.35,1.35 0 0 0 1.34,1.35 h 160.75 a 1.36,1.36 0 0 0 1.35,-1.35 V 729.7 a 1.35,1.35 0 0 1 1.34,-1.35 h 34.36 a 1.35,1.35 0 0 1 1.35,1.35 v 49.58 a 1.36,1.36 0 0 0 1.35,1.35 h 81.34 a 1.36,1.36 0 0 0 1.35,-1.35 V 410.76 a 1.36,1.36 0 0 0 -1.35,-1.35 z m -334.8,301.72 a 1.34,1.34 0 0 1 -1.34,1.34 h -50.24 a 1.34,1.34 0 0 1 -1.35,-1.34 V 694 a 1.35,1.35 0 0 1 1.35,-1.35 h 50.24 a 1.35,1.35 0 0 1 1.34,1.35 z m 0,-44.34 a 1.34,1.34 0 0 1 -1.34,1.35 h -50.24 a 1.34,1.34 0 0 1 -1.35,-1.35 v -17.15 a 1.34,1.34 0 0 1 1.35,-1.35 h 50.24 a 1.34,1.34 0 0 1 1.34,1.35 z m 0,-44.33 a 1.35,1.35 0 0 1 -1.34,1.35 h -50.24 a 1.35,1.35 0 0 1 -1.35,-1.35 V 605.3 a 1.35,1.35 0 0 1 1.35,-1.35 h 50.24 a 1.35,1.35 0 0 1 1.34,1.35 z m 0,-44.34 a 1.34,1.34 0 0 1 -1.34,1.35 h -50.24 a 1.34,1.34 0 0 1 -1.35,-1.35 V 561 a 1.34,1.34 0 0 1 1.35,-1.35 h 50.24 a 1.34,1.34 0 0 1 1.34,1.35 z m 0,-44.33 a 1.35,1.35 0 0 1 -1.34,1.35 h -50.24 a 1.35,1.35 0 0 1 -1.35,-1.35 v -17.16 a 1.34,1.34 0 0 1 1.35,-1.34 h 50.24 a 1.34,1.34 0 0 1 1.34,1.34 z m 0,-44.33 a 1.34,1.34 0 0 1 -1.34,1.34 h -50.24 a 1.34,1.34 0 0 1 -1.35,-1.34 V 472.3 a 1.35,1.35 0 0 1 1.35,-1.35 h 50.24 a 1.35,1.35 0 0 1 1.34,1.35 z m 0,-44.34 a 1.34,1.34 0 0 1 -1.34,1.35 h -50.24 a 1.34,1.34 0 0 1 -1.35,-1.35 V 428 a 1.34,1.34 0 0 1 1.35,-1.35 h 50.24 a 1.34,1.34 0 0 1 1.34,1.35 z m 119.11,266 a 1.34,1.34 0 0 1 -1.35,1.34 h -50.24 a 1.35,1.35 0 0 1 -1.35,-1.34 V 694 a 1.36,1.36 0 0 1 1.35,-1.35 h 50.24 a 1.35,1.35 0 0 1 1.35,1.35 z m 0,-44.34 a 1.34,1.34 0 0 1 -1.35,1.35 h -50.24 a 1.35,1.35 0 0 1 -1.35,-1.35 v -17.14 a 1.35,1.35 0 0 1 1.35,-1.35 h 50.24 a 1.34,1.34 0 0 1 1.35,1.35 z m 0,-44.33 a 1.35,1.35 0 0 1 -1.35,1.35 h -50.24 a 1.36,1.36 0 0 1 -1.35,-1.35 V 605.3 a 1.36,1.36 0 0 1 1.35,-1.35 h 50.24 a 1.35,1.35 0 0 1 1.35,1.35 z m 0,-44.34 a 1.34,1.34 0 0 1 -1.35,1.35 h -50.24 a 1.35,1.35 0 0 1 -1.35,-1.35 V 561 a 1.35,1.35 0 0 1 1.35,-1.35 h 50.24 a 1.34,1.34 0 0 1 1.35,1.35 z m 0,-44.33 a 1.35,1.35 0 0 1 -1.35,1.35 h -50.24 a 1.36,1.36 0 0 1 -1.35,-1.35 v -17.15 a 1.35,1.35 0 0 1 1.35,-1.34 h 50.24 a 1.34,1.34 0 0 1 1.35,1.34 z m 0,-44.33 a 1.34,1.34 0 0 1 -1.35,1.34 h -50.24 a 1.35,1.35 0 0 1 -1.35,-1.34 V 472.3 a 1.36,1.36 0 0 1 1.35,-1.35 h 50.24 a 1.35,1.35 0 0 1 1.35,1.35 z m 0,-44.34 a 1.34,1.34 0 0 1 -1.35,1.35 h -50.24 a 1.35,1.35 0 0 1 -1.35,-1.35 V 428 a 1.35,1.35 0 0 1 1.35,-1.35 h 50.24 a 1.34,1.34 0 0 1 1.35,1.35 z m 81.39,266 a 1.34,1.34 0 0 1 -1.35,1.34 h -50.24 a 1.35,1.35 0 0 1 -1.35,-1.34 V 694 a 1.36,1.36 0 0 1 1.35,-1.35 h 50.24 a 1.35,1.35 0 0 1 1.35,1.35 z m 0,-44.34 a 1.34,1.34 0 0 1 -1.35,1.35 h -50.24 a 1.35,1.35 0 0 1 -1.35,-1.35 v -17.13 a 1.35,1.35 0 0 1 1.35,-1.35 h 50.24 a 1.34,1.34 0 0 1 1.35,1.35 z m 0,-44.33 a 1.35,1.35 0 0 1 -1.35,1.35 h -50.24 a 1.36,1.36 0 0 1 -1.35,-1.35 V 605.3 a 1.36,1.36 0 0 1 1.35,-1.35 h 50.24 a 1.35,1.35 0 0 1 1.35,1.35 z m 0,-44.34 a 1.34,1.34 0 0 1 -1.35,1.35 h -50.24 a 1.35,1.35 0 0 1 -1.35,-1.35 V 561 a 1.35,1.35 0 0 1 1.35,-1.35 h 50.24 a 1.34,1.34 0 0 1 1.35,1.35 z m 0,-44.33 a 1.35,1.35 0 0 1 -1.35,1.35 h -50.24 a 1.36,1.36 0 0 1 -1.35,-1.35 v -17.14 a 1.35,1.35 0 0 1 1.35,-1.34 h 50.24 a 1.34,1.34 0 0 1 1.35,1.34 z m 0,-44.33 a 1.34,1.34 0 0 1 -1.35,1.34 h -50.24 a 1.35,1.35 0 0 1 -1.35,-1.34 V 472.3 a 1.36,1.36 0 0 1 1.35,-1.35 h 50.24 a 1.35,1.35 0 0 1 1.35,1.35 z m 0,-44.34 a 1.34,1.34 0 0 1 -1.35,1.35 h -50.24 a 1.35,1.35 0 0 1 -1.35,-1.35 V 428 a 1.35,1.35 0 0 1 1.35,-1.35 h 50.24 a 1.34,1.34 0 0 1 1.35,1.35 z m 119.11,266 a 1.35,1.35 0 0 1 -1.35,1.34 H 746.75 A 1.34,1.34 0 0 1 745.4,711.1 V 694 a 1.35,1.35 0 0 1 1.35,-1.35 H 797 a 1.36,1.36 0 0 1 1.35,1.35 z m 0,-44.34 a 1.35,1.35 0 0 1 -1.35,1.35 h -50.24 a 1.34,1.34 0 0 1 -1.35,-1.35 v -17.12 a 1.34,1.34 0 0 1 1.35,-1.35 H 797 a 1.35,1.35 0 0 1 1.35,1.35 z m 0,-44.33 a 1.36,1.36 0 0 1 -1.35,1.35 h -50.24 a 1.35,1.35 0 0 1 -1.35,-1.35 V 605.3 a 1.35,1.35 0 0 1 1.35,-1.35 H 797 a 1.36,1.36 0 0 1 1.35,1.35 z m 0,-44.34 a 1.35,1.35 0 0 1 -1.35,1.35 h -50.24 a 1.34,1.34 0 0 1 -1.35,-1.35 V 561 a 1.34,1.34 0 0 1 1.35,-1.35 H 797 a 1.35,1.35 0 0 1 1.35,1.35 z m 0,-44.33 a 1.36,1.36 0 0 1 -1.35,1.35 h -50.24 a 1.35,1.35 0 0 1 -1.35,-1.35 v -17.13 a 1.34,1.34 0 0 1 1.35,-1.34 H 797 a 1.35,1.35 0 0 1 1.35,1.34 z m 0,-44.33 A 1.35,1.35 0 0 1 797,490.8 h -50.25 a 1.34,1.34 0 0 1 -1.35,-1.34 V 472.3 a 1.35,1.35 0 0 1 1.35,-1.35 H 797 a 1.36,1.36 0 0 1 1.35,1.35 z m 0,-44.34 a 1.35,1.35 0 0 1 -1.35,1.35 h -50.24 a 1.34,1.34 0 0 1 -1.35,-1.35 V 428 a 1.34,1.34 0 0 1 1.35,-1.35 H 797 a 1.35,1.35 0 0 1 1.35,1.35 z"
         transform="translate(-77,-85.07)"
         id="path823" />
      <path
         style="opacity:0.1;fill:#f68903"
         d="m 448,309.53 a 28.89,28.89 0 0 0 -16.77,1.82 24.71,24.71 0 0 1 -20.23,-0.05 28.22,28.22 0 0 0 -23.68,0.47 14.75,14.75 0 0 1 -6.82,1.7 c -9.6,0 -17.59,-9.67 -19.25,-22.43 a 18.41,18.41 0 0 0 4.8,-5.17 c 5.63,-9.07 14.35,-14.9 24.14,-14.9 9.79,0 18.4,5.76 24,14.73 a 18.51,18.51 0 0 0 15.95,8.76 h 0.25 c 7.72,0 14.34,6.13 17.61,15.07 z"
         transform="translate(-77,-85.07)"
         id="path825" />
      <path
         style="opacity:0.1;fill:#f68903"
         d="m 477.2,269.48 -15.52,9.84 9.42,-17.13 a 15.34,15.34 0 0 0 -9.39,-3.35 h -0.25 a 18.16,18.16 0 0 1 -3.22,-0.24 l -5.24,3.34 2.26,-4.1 a 18.7,18.7 0 0 1 -9.2,-7 l -9.42,6 5.93,-10.84 c -5.51,-6.61 -12.93,-10.66 -21.09,-10.66 -9.79,0 -18.51,5.82 -24.14,14.89 a 18.05,18.05 0 0 1 -16,8.61 h -0.53 c -10.81,0 -19.57,12.25 -19.57,27.37 0,15.12 8.76,27.37 19.57,27.37 a 14.61,14.61 0 0 0 6.82,-1.71 28.22,28.22 0 0 1 23.68,-0.46 24.71,24.71 0 0 0 20.14,0 28.21,28.21 0 0 1 23.48,0.45 14.65,14.65 0 0 0 6.74,1.67 c 10.81,0 19.57,-12.26 19.57,-27.37 a 34.76,34.76 0 0 0 -4.04,-16.68 z"
         transform="translate(-77,-85.07)"
         id="path827" />
      <path
         style="opacity:0.1;fill:#f68903"
         d="m 909,492 a 20.31,20.31 0 0 0 -11.74,1.27 17.27,17.27 0 0 1 -14.1,0 19.76,19.76 0 0 0 -16.58,0.33 10.28,10.28 0 0 1 -4.77,1.19 c -6.72,0 -12.31,-6.77 -13.47,-15.7 a 13.07,13.07 0 0 0 3.36,-3.62 c 3.94,-6.35 10,-10.43 16.89,-10.43 6.89,0 12.89,4 16.83,10.31 a 12.94,12.94 0 0 0 11.16,6.13 h 0.18 c 5.3,-0.02 9.93,4.27 12.24,10.52 z"
         transform="translate(-77,-85.07)"
         id="path829" />
      <path
         style="opacity:0.1;fill:#f68903"
         d="m 929.42,464 -10.86,6.89 6.59,-12 a 10.74,10.74 0 0 0 -6.57,-2.34 h -0.17 a 12.89,12.89 0 0 1 -2.25,-0.17 l -3.69,2.33 1.58,-2.86 a 13.19,13.19 0 0 1 -6.44,-4.89 l -6.61,4.16 4.16,-7.57 c -3.85,-4.63 -9,-7.47 -14.76,-7.47 -6.85,0 -13,4.08 -16.9,10.43 a 12.62,12.62 0 0 1 -11.17,6 H 862 c -7.56,0 -13.7,8.57 -13.7,19.15 0,10.58 6.14,19.16 13.7,19.16 a 10.28,10.28 0 0 0 4.77,-1.19 19.72,19.72 0 0 1 16.58,-0.32 17.37,17.37 0 0 0 14.1,0 19.75,19.75 0 0 1 16.43,0.32 10.35,10.35 0 0 0 4.72,1.16 c 7.57,0 13.7,-8.57 13.7,-19.16 A 24.35,24.35 0 0 0 929.42,464 Z"
         transform="translate(-77,-85.07)"
         id="path831" />
      <path
         style="opacity:0.1;fill:#f68903"
         d="m 315.62,428 a 20.32,20.32 0 0 1 11.74,1.27 17.24,17.24 0 0 0 14.09,0 19.76,19.76 0 0 1 16.58,0.33 10.31,10.31 0 0 0 4.77,1.19 c 6.72,0 12.32,-6.77 13.48,-15.7 a 12.93,12.93 0 0 1 -3.36,-3.62 C 369,405.1 362.87,401 356,401 c -6.87,0 -12.88,4 -16.82,10.31 A 13,13 0 0 1 328,417.46 h -0.17 c -5.32,0 -9.96,4.29 -12.21,10.54 z"
         transform="translate(-77,-85.07)"
         id="path833" />
      <path
         style="opacity:0.1;fill:#f68903"
         d="m 295.14,400 10.86,6.86 -6.6,-12 a 10.76,10.76 0 0 1 6.57,-2.34 h 0.18 a 13,13 0 0 0 2.25,-0.17 l 3.68,2.33 -1.58,-2.86 a 13.21,13.21 0 0 0 6.45,-4.89 l 6.59,4.18 -4.17,-7.57 c 3.86,-4.63 9.05,-7.47 14.77,-7.47 6.85,0 13,4.08 16.9,10.43 a 12.61,12.61 0 0 0 11.17,6 h 0.36 c 7.57,0 13.7,8.57 13.7,19.15 0,10.58 -6.13,19.16 -13.7,19.16 a 10.34,10.34 0 0 1 -4.77,-1.19 19.72,19.72 0 0 0 -16.58,-0.32 17.35,17.35 0 0 1 -14.09,0 19.77,19.77 0 0 0 -16.44,0.32 10.32,10.32 0 0 1 -4.72,1.16 c -7.56,0 -13.7,-8.57 -13.7,-19.16 A 24.35,24.35 0 0 1 295.14,400 Z"
         transform="translate(-77,-85.07)"
         id="path835" />
      <path
         style="fill:#3f3d56"
         d="m 295.68,785.13 c 13.54,8.6 33.05,-0.1 46.68,8.37 3.52,2.18 6.36,5.39 10,7.37 4.37,2.39 9.51,2.82 14.48,3 41.62,1.61 83.94,-10 124.52,-0.62 11.35,2.62 22.45,6.88 34.08,7.5 20.09,1.09 39.34,-8.71 59.45,-9.25 30.5,-0.82 60.47,19.59 89.9,11.54 9.68,-2.65 18.56,-8.3 28.55,-9.25 11.13,-1 21.83,3.85 32.65,6.68 38.37,10 78.33,-6.2 118,-7.41 25.87,-0.79 51.49,4.85 77.34,6.15 18.38,0.92 36.8,-0.37 55.16,-1.65 7,-0.49 14.33,-1.09 20.19,-4.93 5.86,-3.84 9.46,-12.09 5.84,-18.09 z"
         transform="translate(-77,-85.07)"
         id="path837" />
      <path
         style="opacity:0.1"
         d="m 295.68,785.13 c 13.54,8.6 33.05,-0.1 46.68,8.37 3.52,2.18 6.36,5.39 10,7.37 4.37,2.39 9.51,2.82 14.48,3 41.62,1.61 83.94,-10 124.52,-0.62 11.35,2.62 22.45,6.88 34.08,7.5 20.09,1.09 39.34,-8.71 59.45,-9.25 30.5,-0.82 60.47,19.59 89.9,11.54 9.68,-2.65 18.56,-8.3 28.55,-9.25 11.13,-1 21.83,3.85 32.65,6.68 38.37,10 78.33,-6.2 118,-7.41 25.87,-0.79 51.49,4.85 77.34,6.15 18.38,0.92 36.8,-0.37 55.16,-1.65 7,-0.49 14.33,-1.09 20.19,-4.93 5.86,-3.84 9.46,-12.09 5.84,-18.09 z"
         transform="translate(-77,-85.07)"
         id="path839" />
      <path
         style="fill:#3f3d56"
         d="m 295.68,780.13 c 13.54,8.6 33.05,-0.1 46.68,8.37 3.52,2.18 6.36,5.39 10,7.37 4.37,2.39 9.51,2.82 14.48,3 41.62,1.61 83.94,-10 124.52,-0.62 11.35,2.62 22.45,6.88 34.08,7.5 20.09,1.09 39.34,-8.71 59.45,-9.25 30.5,-0.82 60.47,19.59 89.9,11.54 9.68,-2.65 18.56,-8.3 28.55,-9.25 11.13,-1 21.83,3.85 32.65,6.68 38.37,10 78.33,-6.2 118,-7.41 25.87,-0.79 51.49,4.85 77.34,6.15 18.38,0.92 36.8,-0.37 55.16,-1.65 7,-0.49 14.33,-1.09 20.19,-4.93 5.86,-3.84 9.46,-12.09 5.84,-18.09 z"
         transform="translate(-77,-85.07)"
         id="path841" />
      <g
         style="opacity:0.1"
         id="g853">
        <path
           style="fill:#3f3d56"
           d="m 199.35,656.93 a 24.45,24.45 0 0 1 -3.23,12.38 25.34,25.34 0 0 1 0,24.76 22.75,22.75 0 0 1 2.44,6 454.1,454.1 0 0 1 -30.09,-45 v 0 a 24,24 0 0 1 3.16,-10.56 24.45,24.45 0 0 1 -3.23,-12.38 25.46,25.46 0 0 1 1.46,-8.61 21.39,21.39 0 0 1 1.77,-3.77 c 2.82,-4.79 7.26,-7.88 12.24,-7.88 4.98,0 9.43,3.09 12.25,7.88 a 22.28,22.28 0 0 1 1.73,3.65 25.63,25.63 0 0 1 1.5,8.73 24.45,24.45 0 0 1 -3.23,12.38 24.45,24.45 0 0 1 3.23,12.42 z"
           transform="translate(-77,-85.07)"
           id="path843" />
        <ellipse
           style="fill:#3f3d56"
           cx="106.87"
           cy="522.34998"
           rx="15.47"
           ry="20.26"
           id="ellipse845" />
        <ellipse
           style="fill:#3f3d56"
           cx="106.87"
           cy="497.59"
           rx="15.47"
           ry="20.26"
           id="ellipse847" />
        <path
           style="fill:#f68903"
           d="m 257.67,459 a 73.78,73.78 0 0 1 -15.87,45.83 74.13,74.13 0 0 1 -44,118.57 c -1.78,0.36 -3.59,0.64 -5.42,0.86 a 74.89,74.89 0 0 1 -17,0.09 q -2.82,-0.3 -5.57,-0.83 a 73.3,73.3 0 0 1 -23,-8.41 738.54,738.54 0 0 1 -34.81,-83.79 73.79,73.79 0 0 1 13.29,-26.45 74.19,74.19 0 0 1 -12,-69.61 l 56.28,18.89 -52.78,-27.42 a 74.43,74.43 0 0 1 8.45,-13.52 74.13,74.13 0 1 1 122.43,-82.95 l -54.41,40 59,-30.6 a 74.22,74.22 0 0 1 -1.42,58.73 l -44,-0.33 40.66,6.68 a 74.43,74.43 0 0 1 -5.77,8.48 73.8,73.8 0 0 1 15.94,45.78 z"
           transform="translate(-77,-85.07)"
           id="path849" />
        <path
           style="opacity:0.1"
           d="m 257.67,550.7 a 74.15,74.15 0 0 1 -59.82,72.74 c -1.78,0.36 -3.59,0.64 -5.42,0.86 a 74.89,74.89 0 0 1 -17,0.09 q -2.82,-0.3 -5.57,-0.83 a 73.3,73.3 0 0 1 -23,-8.41 A 738.54,738.54 0 0 1 112,531.32 73.79,73.79 0 0 1 125.29,504.87 73.83,73.83 0 0 1 109.42,459 c 0,-8.32 142.32,33.22 132.38,45.83 a 73.78,73.78 0 0 1 15.87,45.87 z"
           transform="translate(-77,-85.07)"
           id="path851" />
      </g>
      <g
         style="opacity:0.1"
         id="g861">
        <path
           style="fill:#3f3d56"
           d="m 1091.9,637.65 c -2.9,9.26 -6,18.45 -9.18,27.43 a 25.64,25.64 0 0 1 -1.32,-8.21 c 0,-8.93 4.4,-16.51 10.5,-19.22 z"
           transform="translate(-77,-85.07)"
           id="path855" />
        <path
           style="fill:#f68903"
           d="m 1123,478.09 c 0,17.55 -3.54,45.28 -10,77 a 845.74,845.74 0 0 1 -21.15,82.56 c -2.9,9.26 -6,18.45 -9.18,27.43 -3.65,10.2 -7.5,20.12 -11.53,29.61 a 74.41,74.41 0 0 1 -32.91,-115.77 74.48,74.48 0 0 1 -12,-69.76 l 56.28,18.93 -52.78,-27.48 a 74.67,74.67 0 0 1 8.45,-13.55 74.4,74.4 0 0 1 29.12,-114.25 127.55,127.55 0 0 1 48.75,63.93 l -9.75,7.26 10.46,-5.43 a 126.93,126.93 0 0 1 6.09,33.31 h -2.94 l 3,0.49 c 0.09,1.89 0.09,3.79 0.09,5.72 z"
           transform="translate(-77,-85.07)"
           id="path857" />
        <path
           style="opacity:0.1"
           d="m 1113.05,555.09 a 845.74,845.74 0 0 1 -21.15,82.56 c -2.9,9.26 -6,18.45 -9.18,27.43 -3.65,10.2 -7.5,20.12 -11.53,29.61 A 74.41,74.41 0 0 1 1038.28,578.92 74.1,74.1 0 0 1 1022.42,533 c 0,-5 51.72,8.1 90.63,22.09 z"
           transform="translate(-77,-85.07)"
           id="path859" />
      </g>
      <path
         style="opacity:0.1;fill:#f68903"
         d="m 1122.87,472.35 c 0,-0.15 0,-0.31 0,-0.47 a 126.93,126.93 0 0 0 -6.09,-33.31 c -0.2,-0.61 -0.4,-1.23 -0.61,-1.83 a 127.55,127.55 0 0 0 -48.75,-63.93 126.8,126.8 0 0 0 -166.16,20.54 179.4,179.4 0 0 0 -10.11,-35.47 569.6,569.6 0 0 1 -100.63,3.75 406,406 0 0 0 63.8,23.17 l -0.78,2.9 A 409.71,409.71 0 0 1 782.22,361 l -6.91,-3.35 7.66,0.5 a 569.79,569.79 0 0 0 107,-3.07 A 180.42,180.42 0 0 0 858.45,305 c -57.56,-5.8 -114.67,-17.88 -168,-41.83 l 1.23,-2.73 c 51.91,23.33 107.54,35.32 163.7,41.22 a 179.76,179.76 0 0 0 -285.73,30.37 246.89,246.89 0 0 0 -61.24,-138.9 576.62,576.62 0 0 1 -94.77,28.71 573.15,573.15 0 0 1 -148.14,11.79 406,406 0 0 0 63.8,23.17 l -0.78,2.9 A 409.71,409.71 0 0 1 257.22,233 l -6.91,-3.35 7.66,0.5 A 569.21,569.21 0 0 0 506.33,190.8 q -4.45,-4.87 -9.16,-9.52 c -98.42,2 -205.61,1 -302.65,-34.33 A 247.53,247.53 0 0 0 77,357.82 c 0,46.46 12.77,110.35 35,174.45 a 741.24,741.24 0 0 0 34.91,84 c 6.79,13.8 14,27.21 21.57,40.05 v 0 a 454.59,454.59 0 0 0 30.09,45 q 2.94,3.87 5.95,7.6 A 274.51,274.51 0 0 0 242,747.79 v 0 q 4.17,3.48 8.39,6.63 a 159.8,159.8 0 0 0 24,15 c 14.67,7.35 29.81,11.66 45.3,12.28 1.24,0.05 2.49,0.08 3.73,0.08 v 0.51 h 672 v -0.51 h 0.5 a 34,34 0 0 0 11.36,-2 c 23.76,-8.43 45.64,-42.28 63.83,-85.06 4,-9.49 7.88,-19.41 11.53,-29.61 3.22,-9 6.28,-18.17 9.18,-27.43 a 845.74,845.74 0 0 0 21.15,-82.56 c 6.41,-31.72 10,-59.45 10,-77 0.03,-1.96 0.03,-3.86 -0.1,-5.77 z"
         transform="translate(-77,-85.07)"
         id="path863" />
      <path
         style="fill:#f68903"
         d="M 411.06,752.86 430.2,741.6 a 46.13,46.13 0 0 0 -9.79,-11.71 l -36.11,11.23 28.3,-16.63 a 46,46 0 0 0 -68.1,40.35 c 0,25.4 20.59,26.28 46,26.28 25.41,0 46,-0.88 46,-26.28 a 45.79,45.79 0 0 0 -3.95,-18.67 z"
         transform="translate(-77,-85.07)"
         id="path865" />
      <path
         style="opacity:0.1"
         d="m 415.93,777.55 a 35.76,35.76 0 0 0 -6.78,-5.32 c -3.48,-2.31 -7.07,-4.67 -11.17,-5.45 -3.6,-0.69 -7.31,-0.11 -11,-0.32 a 25.66,25.66 0 0 1 -16.81,-7.7 c -2.61,-2.7 -4.67,-6 -7.81,-8.09 -3.39,-2.22 -7.69,-2.7 -11.71,-2.15 a 29.07,29.07 0 0 0 -3.46,0.71 45.85,45.85 0 0 0 -2.72,15.61 c 0,25.4 20.59,26.28 46,26.28 12.33,0 23.52,-0.21 31.78,-3.32 l -1.38,-2.58 a 36.4,36.4 0 0 0 -4.94,-7.67 z"
         transform="translate(-77,-85.07)"
         id="path867" />
      <circle
         style="fill:#3f3d56"
         cx="547.34003"
         cy="185.77"
         r="35.75"
         id="circle869" />
      <path
         style="fill:#3f3d56"
         d="m 603.6,548.94 c 3.69,25.89 -0.81,52.29 -7.82,77.48 -1.31,4.69 -2.72,9.42 -5.17,13.63 -2.45,4.21 -5.86,7.83 -8.74,11.79 -6,8.26 -9.52,18 -12.81,27.64 a 779.65,779.65 0 0 0 -22.82,81.32 5.57,5.57 0 0 0 0,3.47 c 0.87,2 3.51,2.26 5.68,2.25 l 28.06,-0.15 c 1,-1.92 -0.85,-4 -2,-5.84 -4,-6.22 -0.16,-14.3 3.37,-20.81 a 223.74,223.74 0 0 0 19.78,-50 c 1.92,-7.33 3.48,-14.82 6.6,-21.73 3.77,-8.38 9.68,-15.59 14.48,-23.43 5.58,-9.11 9.65,-19 13.69,-28.93 5.64,-13.78 11.33,-27.73 13.55,-42.45 2.09,-13.82 1.06,-27.9 -0.3,-41.81 a 2.64,2.64 0 0 0 -3.06,-3 l -37.65,-1.94 c -7.76,-0.4 -9.6,-2.1 -8.42,5.52 0.82,5.69 2.76,11.23 3.58,16.99 z"
         transform="translate(-77,-85.07)"
         id="path871" />
      <path
         style="opacity:0.1"
         d="m 603.6,548.94 c 3.69,25.89 -0.81,52.29 -7.82,77.48 -1.31,4.69 -2.72,9.42 -5.17,13.63 -2.45,4.21 -5.86,7.83 -8.74,11.79 -6,8.26 -9.52,18 -12.81,27.64 a 779.65,779.65 0 0 0 -22.82,81.32 5.57,5.57 0 0 0 0,3.47 c 0.87,2 3.51,2.26 5.68,2.25 l 28.06,-0.15 c 1,-1.92 -0.85,-4 -2,-5.84 -4,-6.22 -0.16,-14.3 3.37,-20.81 a 223.74,223.74 0 0 0 19.78,-50 c 1.92,-7.33 3.48,-14.82 6.6,-21.73 3.77,-8.38 9.68,-15.59 14.48,-23.43 5.58,-9.11 9.65,-19 13.69,-28.93 5.64,-13.78 11.33,-27.73 13.55,-42.45 2.09,-13.82 1.06,-27.9 -0.3,-41.81 a 2.64,2.64 0 0 0 -3.06,-3 l -37.65,-1.94 c -7.76,-0.4 -9.6,-2.1 -8.42,5.52 0.82,5.69 2.76,11.23 3.58,16.99 z"
         transform="translate(-77,-85.07)"
         id="path873" />
      <path
         style="fill:#3f3d56"
         d="m 611,486 c -7.65,11 -15.67,23.66 -13.13,36.83 1.93,10 9.55,17.75 16.74,25 28.74,28.86 57,60.92 66.78,100.47 2.52,10.22 3.74,20.71 5.91,31 3.94,18.7 11,36.58 18,54.35 L 724.06,781 a 28.36,28.36 0 0 0 27.1,-18 c -2.46,-0.19 -5.67,-2.57 -7.11,-4.57 -8,-11.07 -9.64,-25.31 -11.69,-38.81 -2.27,-14.92 -5.3,-29.72 -8.34,-44.51 l -13.44,-65.44 c -1.55,-7.55 -3.1,-15.11 -5.12,-22.55 -7.82,-28.82 -22.64,-56 -24.93,-85.8 -0.34,-4.38 -0.55,-9.19 -3.52,-12.44 -3.12,-3.43 -8.24,-4 -12.87,-4.27 -18.73,-1.2 -34.89,-3.03 -53.14,1.39 z"
         transform="translate(-77,-85.07)"
         id="path875" />
      <path
         style="fill:#f2f2f2"
         d="m 560.47,760.13 a 29.86,29.86 0 0 0 -6.22,-0.8 12.92,12.92 0 0 0 -10.16,5.55 25.25,25.25 0 0 0 -2.73,6 l -2.71,7.78 c -0.8,2.28 -1.58,4.91 -0.39,7 a 7.42,7.42 0 0 0 3.64,2.81 c 6.56,2.92 14,3.08 21.1,3.78 6.94,0.68 13.82,1.9 20.67,3.18 2.36,0.45 4.71,0.9 7.1,1.14 5.34,0.54 10.72,0 16.06,-0.48 l 5.51,-0.53 a 19.84,19.84 0 0 0 5.42,-1 6.83,6.83 0 0 0 4,-3.59 c 1.36,-3.37 -1.56,-7.36 -5.13,-8.06 -1.45,-0.28 -3,-0.15 -4.42,-0.34 a 20.88,20.88 0 0 1 -4.84,-1.45 c -7,-2.77 -14.17,-5.57 -20.37,-9.93 -1.72,-1.21 -3.52,-2.9 -3.33,-5 a 10.19,10.19 0 0 1 0.89,-2.59 9.46,9.46 0 0 0 0.08,-6.69 c -0.34,-0.92 -1,-1.89 -1.93,-2 -2.64,-0.32 -2.32,3.53 -2.71,5 -0.53,2 -1.49,2.18 -3.37,2 -5.4,-0.49 -10.8,-0.76 -16.16,-1.78 z"
         transform="translate(-77,-85.07)"
         id="path877" />
      <path
         style="fill:#f2f2f2"
         d="m 718.34,787 a 17.65,17.65 0 0 0 3.82,10.75 8.36,8.36 0 0 0 2.72,2.19 10.92,10.92 0 0 0 5,0.79 40.05,40.05 0 0 0 13.89,-2.81 39.7,39.7 0 0 1 4.8,-1.81 53.88,53.88 0 0 1 6.24,-0.9 c 8.27,-1.19 15.53,-6.07 23.52,-8.54 a 49.45,49.45 0 0 0 7,-2.3 c 3.16,-1.49 5.72,-4 8.23,-6.43 a 19.73,19.73 0 0 0 3.78,-4.53 c 1.47,-2.73 1.56,-6 1.62,-9.09 a 2.59,2.59 0 0 0 -0.24,-1.41 2.1,2.1 0 0 0 -0.9,-0.71 c -2.43,-1.2 -5.31,-0.6 -8,-0.13 -9.72,1.73 -19.67,1.41 -29.54,1.09 a 4.29,4.29 0 0 1 -4.54,-2.59 l -3.75,-6 c -1.07,-1.72 -2.77,-3.69 -4.71,-3.1 -1.55,0.47 -2.18,2.37 -2.12,4 0.06,1.63 0.56,3.25 0.25,4.84 a 6.61,6.61 0 0 1 -3.2,4.16 20.44,20.44 0 0 1 -5,1.92 c -5.52,1.56 -11.94,3.33 -16.21,7.39 -3.14,2.88 -2.85,9.33 -2.66,13.22 z"
         transform="translate(-77,-85.07)"
         id="path879" />
      <path
         style="fill:#fbbebe"
         d="m 716.4,390.26 a 23.17,23.17 0 0 0 5.46,-5.94 24.21,24.21 0 0 0 2.33,-8.21 l 1.57,-9.92 c 0.87,-5.47 1.89,-11.26 5.54,-15.43 3.65,-4.17 10.92,-5.66 14.63,-1.54 1.62,1.79 2.26,4.25 2.66,6.64 a 48.34,48.34 0 0 1 -11.82,40 c -4.49,4.92 -10,8.83 -14.75,13.48 -4.14,4 -7.73,8.59 -11.55,12.94 A 159.42,159.42 0 0 1 679,449.78 c 0.14,-7.44 1.09,-15.42 0,-22.81 -0.81,-5.34 -3,-8.22 2.17,-11.71 12,-8.16 24.11,-15.54 35.23,-25 z"
         transform="translate(-77,-85.07)"
         id="path881" />
      <path
         style="fill:#fbbebe"
         d="m 615.56,317.08 c -0.39,5.32 -2.6,10.76 -7,13.83 q 18.69,6.54 36.87,14.42 c -2.34,-2.25 -3.05,-5.7 -3.16,-8.94 -0.31,-8.47 2.62,-16.8 6.9,-24.1 a 5.85,5.85 0 0 0 1.13,-3.18 c -0.14,-2.36 -2.94,-3.45 -5.24,-4 a 128.86,128.86 0 0 0 -23.92,-3.47 c -3.45,-0.11 -7.54,-1.2 -6.76,3.19 0.74,4.1 1.49,8.1 1.18,12.25 z"
         transform="translate(-77,-85.07)"
         id="path883" />
      <circle
         style="fill:#fbbebe"
         cx="562.65997"
         cy="205.63"
         r="29.23"
         id="circle885" />
      <path
         style="fill:#ff6f61"
         d="m 668.6,369.65 a 35.36,35.36 0 0 0 -3.71,-6.22 c -5.3,-7.61 -10.74,-15.21 -17.54,-21.51 a 109.19,109.19 0 0 0 -16.65,-12.23 37.79,37.79 0 0 0 -10.42,-5 40.77,40.77 0 0 0 -6.69,-0.91 L 606,323.16 a 6.21,6.21 0 0 0 -2,0.06 c -2.06,0.52 -3,3.08 -2.56,5.15 0.44,2.07 2,3.75 3.38,5.32 0.34,15.49 -6.55,30.77 -7.48,46.24 -1.63,27.05 14.88,52.21 16.2,79.28 a 8.55,8.55 0 0 1 -0.38,3.63 c -0.22,0.56 -0.55,1.07 -0.8,1.62 -0.78,1.7 -0.75,3.63 -0.89,5.5 a 27.94,27.94 0 0 1 -8.23,17.62 12.23,12.23 0 0 0 4.64,3.54 c 3.19,1.39 7,1.51 10.39,2.48 8.84,2.58 17.9,5.18 27.09,4.63 a 23.9,23.9 0 0 0 2.09,-7.87 c 1.3,-0.81 2.8,0.92 3,2.44 0.2,1.52 -0.09,3.29 1,4.39 1.09,1.1 2.47,0.93 3.8,0.76 5.61,-0.71 11,-2.6 16.5,-3.87 5.5,-1.27 11.38,-1.88 16.73,-0.06 1.08,-1.37 0.62,-3.4 -0.26,-4.9 -0.88,-1.5 -2.13,-2.82 -2.63,-4.49 a 10.08,10.08 0 0 1 -0.32,-2.95 c 0,-8.55 1.76,-17.19 0.09,-25.58 -0.49,-2.46 -1.27,-4.86 -1.77,-7.33 -1,-4.79 -0.85,-9.73 -0.72,-14.62 0.13,-4.89 -0.46,-10.18 -0.56,-15.14 a 48.29,48.29 0 0 0 -0.4,-6.13 c -0.34,-2.13 -1,-4.21 -1.18,-6.36 -0.54,-5.46 1.66,-10.88 1.33,-16.36 -0.55,-8.32 -10.22,-12.84 -13.46,-20.51 z"
         transform="translate(-77,-85.07)"
         id="path887" />
      <path
         style="fill:#fbbebe"
         d="m 602.63,365.73 c -7.08,18.78 -10.54,38.7 -14,58.48 l -8,46.46 c -2.27,13.13 -4.55,26.34 -4.46,39.66 0,3.74 0.24,7.55 -0.74,11.16 -1.28,4.74 -4.46,8.69 -6.87,13 a 42.78,42.78 0 0 0 -4.6,28.93 c 0.82,4.15 3.06,8.86 7.27,9.34 3.46,0.38 6.45,-2.37 8.47,-5.21 4.64,-6.51 6.94,-14.37 9,-22.11 a 500.11,500.11 0 0 0 13.87,-77.09 75.06,75.06 0 0 1 1.39,-9.8 69.54,69.54 0 0 1 3.38,-9.76 q 4.59,-11.38 9.19,-22.76 c 7.07,-17.53 14.18,-35.14 23.89,-51.36 -9.6,-2.76 -19.59,-6 -29.19,-8.73 -2.77,-0.82 -5.74,-0.33 -8.6,-0.21 z"
         transform="translate(-77,-85.07)"
         id="path889" />
      <path
         style="fill:#ff6f61"
         d="m 619.27,380 c -6.72,-1.45 -13.67,-1 -20.53,-1.17 a 4.43,4.43 0 0 1 -2.76,-0.72 c -1.39,-1.19 -0.8,-3.42 -0.1,-5.11 l 3.32,-8 a 11.64,11.64 0 0 1 2.66,-4.42 c 1.69,-1.5 4.07,-1.87 6.31,-2.14 7.29,-0.84 14.79,-1.12 21.86,0.85 7.07,1.97 13.72,6.45 16.88,13.08 1.32,2.76 1.93,6.24 0.18,8.75 -2.6,3.73 -8.43,7.9 -12.78,5.86 -5.21,-2.47 -9.2,-5.74 -15.04,-6.98 z"
         transform="translate(-77,-85.07)"
         id="path891" />
      <path
         style="fill:#3f3d56"
         d="m 655,245.3 a 29.52,29.52 0 0 0 -16.3,4.7 35.75,35.75 0 0 0 -35.1,-8.22 20.43,20.43 0 1 0 -23.6,23.64 35.750219,35.750219 0 1 0 68.62,20.09 32,32 0 0 0 6.41,0.65 c 14.1,0 25.54,-9.15 25.54,-20.43 0,-11.28 -11.49,-20.43 -25.57,-20.43 z"
         transform="translate(-77,-85.07)"
         id="path893" />
      <path
         style="opacity:0.1"
         d="m 660.09,275.94 a 31.1,31.1 0 0 1 -6.41,-0.65 35.57,35.57 0 0 1 -4.68,10.29 32.11,32.11 0 0 0 6,0.58 c 13.18,0 24,-8 25.39,-18.24 -4.69,4.88 -12.04,8.02 -20.3,8.02 z"
         transform="translate(-77,-85.07)"
         id="path895" />
      <path
         style="opacity:0.1"
         d="m 619.23,301.48 a 35.8,35.8 0 0 1 -34.18,-46.28 20.43,20.43 0 0 1 -16.89,-20.12 20.09,20.09 0 0 1 0.33,-3.66 20.43,20.43 0 0 0 11.46,34 35.75,35.75 0 0 0 68.29,21.18 35.68,35.68 0 0 1 -29.01,14.88 z"
         transform="translate(-77,-85.07)"
         id="path897" />
      <rect
         style="fill:#3a3768"
         x="747.57001"
         y="360.79999"
         width="0.67000002"
         height="5.54"
         rx="0.34"
         transform="rotate(35.51,842.32051,200.86305)"
         id="rect899" />
      <rect
         style="fill:#3a3768"
         x="733.02002"
         y="344.54999"
         width="0.38"
         height="1.8200001"
         rx="0.19"
         transform="rotate(35.51,827.62239,182.75778)"
         id="rect901" />
      <rect
         style="fill:#3a3768"
         x="730.66998"
         y="347.14999"
         width="0.41999999"
         height="3.1700001"
         rx="0.20999999"
         transform="rotate(35.51,825.27618,186.02261)"
         id="rect903" />
      <rect
         style="fill:#3a3768"
         x="728.19"
         y="350.63"
         width="0.40000001"
         height="3.2"
         rx="0.2"
         transform="rotate(35.51,822.78197,189.52422)"
         id="rect905" />
      <rect
         style="fill:#3a3768"
         x="722.83002"
         y="343.97"
         width="22.48"
         height="45.689999"
         rx="2.52"
         transform="rotate(35.51,828.46827,204.1106)"
         id="rect907" />
      <rect
         style="opacity:0.1"
         x="722.83002"
         y="343.97"
         width="22.48"
         height="45.689999"
         rx="2.52"
         transform="rotate(35.51,828.46827,204.1106)"
         id="rect909" />
      <rect
         style="fill:#3a3768"
         x="721.90002"
         y="342.10999"
         width="22.48"
         height="45.689999"
         rx="2.52"
         transform="rotate(35.51,827.54658,202.25369)"
         id="rect911" />
      <path
         style="fill:#f68903"
         d="m 752.28,352 -2.09,-1.5 -0.18,0.25 a 1.46,1.46 0 0 1 -2,0.35 l -6.68,-4.77 a 1.47,1.47 0 0 1 -0.34,-2.05 l 0.18,-0.25 -2,-1.4 a 1.78,1.78 0 0 0 -2.49,0.41 l -23.08,32.35 a 1.79,1.79 0 0 0 0.41,2.49 l 13.14,9.37 a 1.78,1.78 0 0 0 2.49,-0.42 l 23.08,-32.34 A 1.78,1.78 0 0 0 752.28,352 Z"
         transform="translate(-77,-85.07)"
         id="path913" />
      <rect
         style="fill:#e6e8ec"
         x="743.37"
         y="347.07001"
         width="3.1400001"
         height="0.63999999"
         rx="0.31999999"
         transform="rotate(35.51,839.34426,184.68583)"
         id="rect915" />
      <circle
         style="fill:#e6e8ec"
         cx="669.90002"
         cy="263.72"
         r="0.36000001"
         id="circle917" />
      <path
         style="fill:#f68903"
         d="m 750.2,325.57 c -294.41907,450.57022 -147.20954,225.28511 0,0 z"
         transform="translate(-77,-85.07)"
         id="path923" />
      <g
         transform="matrix(0.68650339,0,0,0.68650339,487.63377,-21.376535)"
         id="layer1-2">
        <path
           transform="matrix(0.26458333,0,0,0.26458333,109.99107,139.38393)"
           id="path828"
           d="m 591.53906,73.339844 c -24.80785,-0.134572 -54.22283,1.363058 -69.44922,3.972656 -58.35409,10.001121 -110.138,32.06251 -154.20703,65.69531 -11.48103,8.76216 -37.71687,34.36966 -47.02539,45.90039 -14.97245,18.54679 -43.04737,72.69143 -53.53711,103.25 -29.79152,86.78854 -16.92811,183.48155 40.04883,301.05664 47.4282,97.87068 125.59573,210.4945 230,331.38477 16.56726,19.18329 20.31057,22.7362 28.37109,26.92187 7.90678,4.10601 10.38616,4.73209 16.69922,4.21875 10.87835,-0.88456 16.71032,-5.53889 35.83008,-28.59375 C 726.12615,797.09143 801.97849,689.79487 849.29492,599.70312 L 764.3457,549.91406 c -5.49037,-3.218 -9.44851,-8.48903 -11.06445,-14.68164 l -4.11523,-15.77148 C 721.97844,555.07955 683.15694,582.1583 636.42188,594.35352 525.24465,623.36449 411.6555,556.7866 382.64453,445.60938 353.6336,334.43215 420.20953,220.84297 531.38672,191.83203 c 111.17726,-29.01097 224.76836,37.565 253.7793,148.74219 12.19521,46.7351 7.53706,93.83793 -10.25586,134.96289 l 15.77148,-4.11523 c 6.19261,-1.61594 12.72639,-0.73754 18.2168,2.48046 l 76.91992,45.08399 c 5.74702,-15.50489 10.46415,-30.42969 14.16016,-44.80664 9.66519,-37.59625 10.72365,-46.04413 10.68359,-85.25 -0.0333,-32.43009 -0.31575,-36.31443 -3.84961,-52.88867 -7.30114,-34.24332 -23.64836,-73.95099 -43.09766,-104.6875 -15.00253,-23.70913 -38.57524,-55.54996 -50.51953,-68.23829 -45.4549,-48.28652 -115.74992,-80.623718 -192.44726,-88.531246 -7.60774,-0.784358 -17.93269,-1.182971 -29.20899,-1.24414 z m -7.98242,191.714846 c -10.55702,0.0402 -21.28175,1.39634 -31.9707,4.18554 -68.50606,17.87622 -109.38418,87.76063 -91.53321,156.16993 17.87622,68.50605 87.76063,109.38609 156.16993,91.53515 68.50605,-17.87622 109.38609,-87.76257 91.53515,-156.17187 -15.08306,-57.80199 -67.19328,-95.93573 -124.20117,-95.71875 z"
           clip-path="none"
           style="fill:#f6891f;fill-opacity:1;stroke-width:1.42857146" />
      </g>
    </g>
  </g>
</svg>
