<?xml version="1.0" encoding="UTF-8" standalone="no"?>
<svg
   xmlns:dc="http://purl.org/dc/elements/1.1/"
   xmlns:cc="http://creativecommons.org/ns#"
   xmlns:rdf="http://www.w3.org/1999/02/22-rdf-syntax-ns#"
   xmlns:svg="http://www.w3.org/2000/svg"
   xmlns="http://www.w3.org/2000/svg"
   id="svg8"
   version="1.1"
   viewBox="0 0 391.50311 62.377051"
   height="62.377052mm"
   width="391.50311mm">
  <defs
     id="defs2" />
  <metadata
     id="metadata5">
    <rdf:RDF>
      <cc:Work
         rdf:about="">
        <dc:format>image/svg+xml</dc:format>
        <dc:type
           rdf:resource="http://purl.org/dc/dcmitype/StillImage" />
        <dc:title></dc:title>
      </cc:Work>
    </rdf:RDF>
  </metadata>
  <g
     transform="translate(412.7878,-100.29119)"
     id="layer1">
    <g
       transform="translate(-511.02381,-227.54167)"
       id="g21">
      <path
         id="path35"
         d="m 461.7735,389.65807 c -1.1717,-0.78655 -2.17662,-2.78706 -2.33018,-4.63883 -0.1597,-1.9259 0.31731,-2.46433 2.18331,-2.46433 1.58975,0 4.12081,-0.61132 5.22735,-1.26256 1.75506,-1.03291 2.25912,-3.13262 1.23973,-5.16411 -0.65915,-1.31358 -4.25272,-6.47097 -6.10714,-8.7648 -2.91033,-3.59998 -3.65389,-6.3912 -3.64974,-13.70034 0.003,-5.82901 0.11634,-6.83575 0.85664,-7.63035 0.40913,-0.43915 0.72004,-0.53345 1.35695,-0.41153 0.45442,0.087 1.87256,0.2341 3.15142,0.32695 2.04026,0.14811 2.3872,0.24757 2.83086,0.81161 0.75186,0.95583 0.90622,2.70499 0.54118,6.13283 -0.28472,2.6735 -0.27205,3.30589 0.0977,4.87849 0.88183,3.75049 3.42841,8.50929 6.18331,11.55464 0.90633,1.0019 1.15374,1.14528 1.56086,0.90454 0.78041,-0.46152 2.96894,-3.75637 4.20356,-6.32849 2.22285,-4.63098 2.68478,-7.74872 2.12209,-14.32261 -0.22711,-2.6534 -0.22299,-2.68505 0.40392,-3.08399 0.41034,-0.26114 1.67595,-0.46823 3.5941,-0.58811 2.8903,-0.18061 2.97579,-0.16992 3.59605,0.45034 0.62585,0.62585 0.63807,0.73422 0.81733,7.23779 0.15393,5.58419 0.11753,6.84723 -0.23596,8.18991 -0.47648,1.80988 -1.98842,4.74223 -3.50604,6.79992 -1.1329,1.53604 -7.42037,10.64184 -10.85951,15.72718 -3.19738,4.72792 -4.68085,5.63385 -9.57363,5.84666 -2.5836,0.11237 -2.84297,0.0773 -3.70417,-0.50081 z m -359.07364,-9.88353 c -1.59134,-0.86466 -3.093318,-7.6481 -1.91075,-8.62955 0.32167,-0.26696 1.52184,-0.37578 4.56407,-0.41383 5.90379,-0.0739 8.3536,-0.90924 9.55131,-3.25694 1.3409,-2.6284 0.78455,-4.98002 -1.62965,-6.88832 -0.71419,-0.56455 -2.83822,-1.87034 -4.72007,-2.90182 -1.88186,-1.03148 -4.02989,-2.35625 -4.77342,-2.94397 -4.604965,-3.64003 -5.737862,-11.2858 -2.47167,-16.68103 2.61082,-4.31262 8.14809,-7.09792 14.11099,-7.09792 3.11321,0 4.95627,0.44741 8.1477,1.97784 2.03137,0.97412 2.52086,1.33011 2.88827,2.10058 0.43399,0.91009 0.42693,0.96179 -0.37179,2.72412 -0.4478,0.98804 -0.89172,2.17395 -0.98648,2.63541 -0.0948,0.46144 -0.45688,1.14605 -0.80469,1.52136 -0.85926,0.92715 -2.21999,0.89709 -4.74196,-0.10475 -5.83089,-2.31627 -10.21351,-1.32308 -10.47838,2.37461 -0.22406,3.12806 0.30562,3.65019 7.81304,7.70173 5.80738,3.13407 8.60902,7.34658 8.62435,12.96744 0.0196,7.16931 -5.60241,13.04578 -14.17315,14.81476 -2.93607,0.606 -7.60721,0.66024 -8.63772,0.10028 z m 39.98616,0.0174 c -3.8944,-0.81904 -6.82098,-2.42999 -9.30702,-5.12305 -5.9638,-6.46049 -5.42682,-18.03453 1.14318,-24.6399 3.5549,-3.57405 9.64777,-5.49937 14.32709,-4.52726 2.16865,0.45053 5.46665,2.17969 7.23728,3.79457 4.18358,3.81556 6.2561,10.4258 4.22893,13.48804 -0.98399,1.4864 -2.48379,2.0093 -6.65898,2.32158 -2.03194,0.15201 -5.86523,0.44633 -8.51842,0.65408 -2.65318,0.20775 -4.99536,0.31197 -5.20484,0.23159 -0.54868,-0.21055 -1.48056,0.36171 -1.48056,0.90922 0,0.25675 0.57017,1.1753 1.26704,2.0412 0.94475,1.17391 1.72403,1.80753 3.06362,2.49098 1.64493,0.83923 1.99022,0.91614 4.09077,0.91141 3.03529,-0.007 5.40455,-0.74605 7.95323,-2.48137 1.07519,-0.73205 2.09049,-1.33102 2.25624,-1.33102 1.18008,0 3.06493,2.98363 3.06493,4.85164 0,1.54789 -0.94326,2.6883 -3.40866,4.12113 -3.26352,1.89669 -5.28955,2.47266 -9.02675,2.56614 -2.09714,0.0524 -3.93657,-0.0496 -5.02708,-0.27898 z m 3.175,-20.8167 c 3.80818,-0.48228 5.12988,-0.75139 5.49789,-1.1194 0.5577,-0.55769 0.10702,-1.7245 -1.15266,-2.98418 -2.06111,-2.06111 -5.43664,-2.48209 -8.29366,-1.03431 -1.61056,0.81613 -2.84326,1.85176 -3.33424,2.80122 -0.50354,0.97375 -0.23926,2.34162 0.5072,2.62514 0.64433,0.24474 3.53788,0.12155 6.77547,-0.28847 z m 56.66755,20.67954 c -4.23378,-1.14797 -7.57229,-3.54946 -9.98979,-7.1859 -1.49001,-2.24128 -2.35172,-4.62417 -2.76317,-7.64103 -1.43065,-10.48986 6.54887,-19.567 17.20415,-19.57068 6.52957,-0.003 12.40038,4.10898 15.1238,10.59093 2.12379,5.05479 1.3691,12.16766 -1.79981,16.96307 -1.29211,1.9553 -3.40854,4.01794 -5.19987,5.06773 -3.50005,2.05115 -8.79981,2.79958 -12.57531,1.77588 z m 7.22932,-7.78642 c 1.76676,-0.8377 3.09324,-2.28381 4.1525,-4.52697 0.82545,-1.74805 0.8744,-2.01557 0.87138,-4.7625 -0.003,-2.74201 -0.0529,-3.01252 -0.86307,-4.67469 -1.66844,-3.42328 -4.61743,-5.21861 -8.05935,-4.90651 -3.17918,0.28827 -5.56142,2.10706 -7.1778,5.48016 -0.72906,1.5214 -0.82245,1.97921 -0.80958,3.96875 0.0167,2.5859 0.62418,4.577 1.96669,6.44641 2.29062,3.18963 6.68636,4.50816 9.91923,2.97535 z m 62.70625,8.01073 c -2.46237,-0.35647 -4.74115,-1.61369 -6.87917,-3.79526 -3.13124,-3.19505 -4.61988,-6.39352 -5.1342,-11.0313 -0.47512,-4.28424 0.21121,-8.48495 1.91714,-11.73406 1.23081,-2.34418 4.65914,-5.72714 6.83651,-6.74608 2.10194,-0.98361 4.56133,-1.41862 6.6993,-1.18494 2.0668,0.22588 5.90775,1.50054 8.03533,2.66655 0.92693,0.50803 1.75808,0.85093 1.84698,0.76203 0.0889,-0.0889 0.19222,-3.75504 0.22959,-8.14697 0.0776,-9.12447 0.0387,-8.96239 2.34504,-9.76244 1.85509,-0.64352 5.9548,-0.65079 6.53302,-0.0116 0.54972,0.6077 0.5945,2.13786 0.30005,10.25261 -0.29432,8.11135 -0.31367,26.77752 -0.0338,32.60211 0.24832,5.1679 0.26544,5.13313 -2.74813,5.5802 -2.86104,0.42444 -4.6428,-0.0818 -5.39285,-1.53223 -0.21979,-0.42503 -0.39962,-1.01679 -0.39962,-1.31506 0,-0.29829 -0.0818,-0.54231 -0.18171,-0.54231 -0.0999,0 -1.61799,0.71633 -3.37344,1.59186 -4.33295,2.16104 -7.31829,2.82199 -10.60005,2.34688 z m 7.66604,-7.92765 c 2.89499,-1.08315 5.43324,-4.51345 5.82142,-7.86736 0.2391,-2.06576 -0.41545,-5.04727 -1.51031,-6.87954 -0.96928,-1.62213 -2.86712,-3.27038 -4.36661,-3.79235 -1.54918,-0.5393 -4.75951,-0.45001 -6.02304,0.16751 -1.54119,0.75321 -3.36533,2.69414 -4.23583,4.50704 -1.0572,2.20173 -1.24586,5.88486 -0.4145,8.09189 1.91129,5.07391 6.29403,7.43209 10.72887,5.77281 z m 78.12309,7.59928 c -3.61519,-1.23201 -7.18675,-4.34345 -9.06419,-7.89649 -1.38281,-2.61697 -1.98105,-5.27783 -1.97556,-8.78694 0.009,-5.64457 1.46717,-9.54043 4.84116,-12.93286 2.18343,-2.19539 4.24832,-3.34984 7.43356,-4.15605 4.82277,-1.22066 8.84036,-0.30605 12.79247,2.91227 0.91091,0.74175 1.76374,1.28217 1.89521,1.20091 0.13147,-0.0813 0.3188,-0.61986 0.41629,-1.19689 0.0975,-0.57703 0.41416,-1.35033 0.70369,-1.71842 0.48919,-0.6219 0.68509,-0.66924 2.76931,-0.66924 2.57051,0 3.7016,0.42543 3.96955,1.49305 0.1714,0.68283 0.0431,2.88774 -0.42127,7.2382 -0.36724,3.44107 -0.30668,10.57439 0.12356,14.55209 0.54329,5.02269 0.52202,7.73149 -0.0661,8.42417 -0.5258,0.61926 -3.15642,1.36541 -4.81383,1.36541 -1.63263,0 -2.53619,-0.58248 -3.06943,-1.97874 -0.25804,-0.67564 -0.62767,-1.19626 -0.84931,-1.19626 -0.21587,0 -1.08516,0.42079 -1.9318,0.93509 -4.87812,2.96331 -8.90053,3.72364 -12.75326,2.4107 z m 8.88304,-7.47117 c 3.80672,-1.2971 6.59379,-6.64827 5.74918,-11.03852 -0.65262,-3.39236 -2.26004,-5.93474 -4.5566,-7.20688 -1.2506,-0.69279 -1.66063,-0.7801 -3.65747,-0.77883 -1.92529,0 -2.46655,0.10805 -3.76089,0.74245 -4.37856,2.14603 -6.30415,7.70995 -4.41536,12.75815 1.69836,4.53927 6.38709,6.97312 10.64114,5.52363 z m 65.33491,7.69289 c -4.34668,-0.94424 -8.7593,-5.11201 -10.41032,-9.83274 -1.89923,-5.43033 -1.71157,-11.20603 0.51427,-15.82748 2.41035,-5.00451 6.11441,-7.88532 11.03463,-8.58213 3.22874,-0.45722 7.48988,0.60701 11.04519,2.75863 0.84402,0.5108 1.66021,0.92871 1.81375,0.92871 0.19182,0 0.24976,-2.54931 0.18518,-8.14726 -0.0869,-7.53848 -0.0578,-8.20243 0.38965,-8.88564 0.67231,-1.0265 1.75448,-1.39141 4.71186,-1.58879 4.37639,-0.2921 4.21328,-0.67985 3.88249,9.22898 -0.32705,9.79787 -0.4024,31.64443 -0.12247,35.50045 0.21161,2.91457 0.2059,2.96243 -0.40167,3.3596 -0.88019,0.57538 -5.23729,0.87278 -6.30536,0.43037 -0.82989,-0.34375 -1.58366,-1.43423 -1.59105,-2.30175 -0.01,-1.15519 -0.41542,-1.23851 -1.70608,-0.35052 -1.97472,1.35864 -5.39314,2.83851 -7.60526,3.29237 -2.40922,0.49432 -3.2266,0.49692 -5.43481,0.0172 z m 8.59507,-7.92189 c 2.6729,-1.24444 5.12905,-4.6519 5.49513,-7.62357 0.21148,-1.7167 -0.37351,-4.66643 -1.28037,-6.45602 -0.83995,-1.65759 -2.48007,-3.2998 -4.08266,-4.08787 -1.78821,-0.87936 -5.24936,-0.88926 -6.88639,-0.0198 -5.47277,2.90695 -6.7828,11.39441 -2.47033,16.00481 1.85179,1.97969 3.62035,2.77386 6.25163,2.80728 1.15895,0.0148 1.96151,-0.15399 2.97299,-0.62489 z m -266.7817,7.67763 c -3.48245,-0.98065 -7.03173,-3.18559 -8.89621,-5.52665 -3.24215,-4.0709 -4.5309,-10.69673 -3.1378,-16.13236 1.9414,-7.57499 8.50541,-12.62049 16.41877,-12.62049 3.69765,0 8.02863,1.33974 8.76987,2.71285 0.47532,0.88051 0.39873,3.61421 -0.12958,4.62487 -0.24594,0.47048 -0.81403,1.04513 -1.26241,1.27698 -0.76811,0.39722 -0.97662,0.38039 -3.6063,-0.29072 -2.03516,-0.51941 -3.12088,-0.66744 -4.00892,-0.54661 -2.75929,0.37545 -5.5238,2.51638 -7.07974,5.48281 -0.67404,1.28505 -0.7473,1.68269 -0.74987,4.07003 -0.003,2.41379 0.0692,2.79776 0.81806,4.37817 0.4515,0.95276 1.18752,2.14987 1.6356,2.6602 1.00906,1.14924 3.11788,2.20337 5.2412,2.61985 1.48038,0.29035 1.82198,0.2591 4.17537,-0.38203 2.21876,-0.60447 2.65793,-0.65241 3.26915,-0.35701 1.16553,0.5633 1.78771,1.93913 1.78953,3.95722 0.002,2.14413 -0.50842,2.82905 -2.75398,3.69604 -1.92576,0.74351 -8.36889,0.97491 -10.49274,0.37685 z m 55.20685,-0.18055 c -2.4386,-0.40942 -3.06389,-1.39814 -2.90539,-4.59407 0.0578,-1.16628 0.0902,-5.9305 0.072,-10.58717 -0.029,-7.39222 -0.10635,-8.89471 -0.60992,-11.83973 -0.80632,-4.71554 -0.56989,-5.11429 3.42121,-5.77009 1.0914,-0.17934 2.40524,-0.37843 2.91963,-0.44246 1.33004,-0.16553 2.05961,0.51498 2.45344,2.28843 0.17504,0.78825 0.43844,1.47325 0.58533,1.5222 0.1469,0.049 1.09877,-0.51887 2.11527,-1.26188 3.5836,-2.6194 6.11259,-3.52208 9.7857,-3.49284 3.50599,0.0279 6.75308,1.66494 8.17214,4.12009 1.47733,2.55593 1.54099,3.13632 1.64627,15.00857 0.0535,6.03912 0.11749,11.1588 0.14209,11.37708 0.1297,1.15068 -0.10284,2.16184 -0.64106,2.78752 -0.50108,0.58256 -0.91838,0.73507 -2.4804,0.90654 -2.35817,0.25885 -4.51677,-0.0637 -5.23629,-0.78255 -0.5268,-0.52626 -0.5487,-0.88832 -0.67671,-11.18653 l -0.13229,-10.64268 -0.66146,-1.32292 c -1.19273,-2.38546 -3.49033,-3.08107 -6.48091,-1.96218 -1.928,0.72136 -3.51532,1.9557 -4.44155,3.45382 l -0.74734,1.2088 -0.0521,9.62999 c -0.0403,7.45157 -0.13171,9.76971 -0.4041,10.24771 -0.66728,1.17089 -3.27311,1.76593 -5.84359,1.33435 z m 185.37237,0.13025 c -0.0917,-0.0917 -1.13678,-0.15409 -2.32249,-0.13875 -1.18573,0.0154 -2.37799,-0.091 -2.64951,-0.2363 -1.10315,-0.59036 -1.14408,-1.00695 -1.15591,-11.76144 l -0.0114,-10.31875 -0.79375,-1.57107 c -1.05325,-2.08471 -1.99099,-2.60869 -4.39198,-2.45414 -2.14603,0.13814 -3.97766,1.06106 -5.64647,2.84517 -1.84065,1.96778 -1.86179,2.10971 -1.87801,12.59742 -0.0159,10.19736 0.0322,9.88716 -1.63494,10.58402 -1.17877,0.49273 -4.66878,0.46061 -5.75104,-0.0529 -0.47387,-0.22487 -0.99269,-0.67136 -1.15292,-0.99219 -0.19333,-0.38714 -0.32903,-4.49919 -0.40346,-12.22502 -0.10102,-10.48771 -0.16537,-11.87765 -0.6491,-14.02249 -0.45853,-2.03296 -0.48723,-2.49987 -0.19654,-3.19556 0.38624,-0.92443 0.82548,-1.1294 4.26596,-1.99052 2.13233,-0.53369 2.50378,-0.56118 3.27369,-0.24227 0.92152,0.38168 1.5971,1.55844 1.5971,2.7819 0,1.14099 0.66347,1.02907 2.82366,-0.47625 2.73749,-1.90759 4.0195,-2.53005 6.13408,-2.97823 3.94081,-0.83529 7.25545,-0.21605 9.8653,1.84299 1.84801,1.45798 2.73744,3.18404 3.12402,6.06261 0.15647,1.16514 0.27794,6.8657 0.27794,13.04385 0,12.11164 -0.0127,12.21137 -1.61893,12.77133 -0.9911,0.34549 -0.89723,0.33473 -1.10535,0.12663 z m -113.47578,-0.50435 c -0.39019,-0.21188 -0.7861,-0.62677 -0.8798,-0.92199 -0.0937,-0.29525 -0.0259,-4.96893 0.15066,-10.38598 0.29955,-9.1898 0.23926,-18.90805 -0.1862,-30.01735 -0.18071,-4.7185 0.0111,-5.74554 1.15416,-6.18011 0.84615,-0.32171 6.85765,-0.31192 7.46318,0.0122 1.06446,0.56967 1.16515,1.5122 0.97098,9.08886 -0.20269,7.90842 -0.10858,8.6514 1.18013,9.31783 1.0892,0.56324 19.92651,0.57597 21.27061,0.0143 1.46682,-0.61288 1.50529,-0.84252 1.21033,-7.2231 -0.42402,-9.17215 -0.39397,-10.0311 0.37795,-10.80302 0.62506,-0.62505 0.78278,-0.64942 4.20402,-0.64942 3.10522,0 3.63355,0.0639 4.17921,0.50565 l 0.62462,0.50567 0.1323,22.18235 c 0.0728,12.20031 0.0423,22.55147 -0.0676,23.00261 -0.38499,1.57951 -0.94894,1.81594 -4.56205,1.91272 -2.59503,0.0695 -3.41899,0 -4.07412,-0.3375 -0.45166,-0.23357 -0.84593,-0.45138 -0.87616,-0.48403 -0.0302,-0.0327 -0.11952,-4.43177 -0.19844,-9.77582 -0.14277,-9.66833 -0.14647,-9.7195 -0.74614,-10.31875 l -0.60266,-0.60227 H 321.80759 311.5022 l -0.70824,0.70823 -0.70824,0.70824 0.0567,9.10018 c 0.0604,9.69672 0.004,10.20133 -1.20737,10.75312 -0.97893,0.44604 -6.67465,0.36103 -7.54698,-0.11263 z M 98.236017,328.05678 c 1.4e-5,-1e-5 0,-4e-5 -1e-5,-5e-5 z"
         style="fill:#fdcfa3;stroke-width:0.26458332" />
      <path
         id="path33"
         d="m 462.56725,389.79465 c -1.37326,-0.56523 -2.61847,-2.63549 -2.83252,-4.70926 -0.19066,-1.84751 0.22926,-2.2659 2.27423,-2.2659 2.67732,0 5.25629,-1.06965 6.443,-2.67231 0.79441,-1.07286 0.67754,-2.86195 -0.30012,-4.59428 -0.96261,-1.70564 -3.50962,-5.32247 -5.68952,-8.07924 -3.07567,-3.88964 -3.87239,-6.74963 -3.84805,-13.81331 0.009,-2.51638 0.11187,-5.16054 0.22932,-5.8759 0.23381,-1.42435 0.88469,-2.12693 1.73929,-1.87753 0.29104,0.0849 1.42214,0.21704 2.51354,0.29358 2.82641,0.19817 3.07565,0.27884 3.38458,1.09532 0.56007,1.48027 0.6069,2.32905 0.29136,5.28235 -0.37661,3.52481 -0.14515,5.31019 1.11056,8.56637 0.81899,2.1237 3.75274,6.79608 5.34461,8.51193 0.50625,0.54571 1.17017,0.99219 1.47534,0.99219 1.27085,0 5.24857,-6.80058 6.42247,-10.98021 0.65537,-2.33346 0.79648,-6.05766 0.38595,-10.18646 -0.2962,-2.97894 -0.2181,-3.04805 3.71504,-3.28602 4.15261,-0.25122 3.92946,-0.65198 4.15086,7.45435 0.23643,8.65561 -0.0214,9.50579 -5.0324,16.60147 -1.43878,2.03729 -4.61891,6.65326 -7.06697,10.25771 -2.44803,3.60447 -4.88415,6.91086 -5.41358,7.34756 -1.51458,1.24931 -3.52327,1.87719 -6.38657,1.99636 -1.38245,0.0575 -2.69213,0.0311 -2.91042,-0.0588 z m -359.43644,-9.87113 c -0.81659,-0.33422 -1.34899,-1.0823 -1.79916,-2.52798 -0.53182,-1.70797 -0.98006,-3.93401 -0.97492,-4.84167 0.008,-1.44319 0.16218,-1.4963 4.81436,-1.65989 4.92686,-0.17327 7.00983,-0.63796 8.54995,-1.90746 1.76116,-1.45169 2.4595,-4.08038 1.61863,-6.09285 -0.57719,-1.38142 -2.75386,-3.08464 -6.65769,-5.20959 -6.89358,-3.75235 -9.123047,-6.89504 -9.123047,-12.86002 0,-6.0638 3.637557,-10.69457 10.188997,-12.97104 1.87914,-0.65297 2.49645,-0.73602 5.55371,-0.74711 2.91228,-0.0106 3.72352,0.0817 5.29167,0.60188 2.02167,0.67061 4.42078,1.91047 5.35781,2.76897 0.74563,0.6831 0.78065,1.95617 0.0866,3.15 -0.27977,0.48127 -0.70418,1.55704 -0.94315,2.39064 -0.48776,1.70148 -1.35814,2.58543 -2.54573,2.58543 -0.41315,0 -1.65438,-0.3588 -2.75829,-0.79732 -2.59842,-1.0322 -5.11027,-1.45572 -7.12597,-1.20148 -1.33372,0.16822 -1.7302,0.35063 -2.55513,1.17555 -1.26038,1.26039 -1.57559,2.90991 -0.89607,4.68921 0.56674,1.48399 1.69397,2.33778 6.30925,4.77882 5.4074,2.85999 7.89578,5.29672 9.20766,9.0165 0.68315,1.93701 0.91845,5.29717 0.50893,7.26763 -1.00623,4.84163 -5.75433,9.65348 -11.26055,11.41169 -3.18945,1.01846 -9.38631,1.57832 -10.84791,0.98009 z m 40.56879,-0.003 c -7.35527,-1.3431 -12.15246,-5.54865 -13.89554,-12.18181 -0.60202,-2.29095 -0.60305,-6.96169 -0.002,-9.15432 1.33021,-4.85277 4.21369,-8.8183 7.98516,-10.98166 7.44417,-4.27011 16.08061,-2.27883 20.87658,4.81346 1.289,1.90616 2.27848,5.07312 2.27848,7.29255 0,2.74082 -0.99867,4.26895 -3.17236,4.85426 -1.00863,0.27159 -9.36011,0.94265 -15.41541,1.23864 -3.62563,0.17725 -4.08862,0.36301 -3.79735,1.52353 0.27553,1.09778 2.9252,3.72239 4.45683,4.41468 1.17252,0.52996 1.80873,0.62796 4.03766,0.62201 3.57403,-0.01 5.76923,-0.75317 8.32851,-2.82126 0.89543,-0.72355 1.93277,-0.94025 2.56784,-0.53641 0.17215,0.10948 0.7377,0.90432 1.25677,1.76633 1.71258,2.84403 1.13978,4.46106 -2.31657,6.53976 -3.15365,1.89666 -5.55385,2.62377 -9.0428,2.73939 -1.60073,0.053 -3.46633,-0.005 -4.14579,-0.12915 z m -0.21983,-20.65178 c 3.87283,-0.33584 6.61851,-0.73462 7.47447,-1.08554 0.93356,-0.38274 0.94239,-1.11984 0.0303,-2.52653 -2.30423,-3.55364 -7.93868,-3.66435 -11.40736,-0.2241 -1.16269,1.15316 -1.38906,1.5327 -1.38906,2.32897 0,0.68313 0.16578,1.06743 0.58804,1.36318 0.66836,0.46813 0.88838,0.47488 4.70363,0.14402 z m 60.52697,20.64919 c -3.67634,-0.66916 -6.58203,-2.16339 -9.05912,-4.6586 -3.07266,-3.09515 -4.71747,-6.53219 -5.12034,-10.69961 -0.98656,-10.20535 5.77255,-18.33965 15.96908,-19.21812 7.42791,-0.63995 14.94871,4.92612 16.929,12.52897 0.58558,2.24819 0.51843,6.91148 -0.13673,9.49505 -1.56295,6.16347 -5.84946,10.58484 -11.77241,12.14279 -1.97523,0.51954 -5.1545,0.71075 -6.80948,0.40952 z m 6.09891,-8.10329 c 1.60589,-0.80025 2.9129,-2.28843 3.94454,-4.49132 0.67533,-1.44206 0.73478,-1.82589 0.73478,-4.74401 0,-3.0475 -0.0334,-3.23877 -0.83218,-4.7625 -1.62257,-3.09528 -3.74491,-4.62021 -6.72828,-4.83439 -3.70911,-0.26627 -6.73132,1.57417 -8.5066,5.18028 -0.80064,1.62631 -0.86502,1.95051 -0.84979,4.27876 0.0257,3.93409 1.41111,6.80112 4.18986,8.67095 1.61963,1.08987 2.48317,1.33525 4.80369,1.36491 1.50976,0.0193 2.12946,-0.10729 3.24398,-0.66268 z m -35.87719,7.56079 c -4.46647,-1.17023 -8.4099,-4.18484 -10.3485,-7.91107 -1.59943,-3.07432 -2.23674,-6.05525 -2.06928,-9.6788 0.22957,-4.96747 1.56308,-8.16552 4.77806,-11.45887 1.98435,-2.03274 3.86909,-3.21685 6.65919,-4.1838 1.83835,-0.63709 2.52828,-0.73454 5.28913,-0.74708 2.80513,-0.0127 3.44513,0.0741 5.49392,0.74568 3.20033,1.04899 3.72269,1.67555 3.58987,4.30588 -0.0855,1.69349 -0.18816,2.01533 -0.86957,2.72656 -0.94356,0.98486 -1.71749,1.02653 -4.56381,0.24564 -3.58459,-0.98341 -6.25593,-0.3402 -8.77166,2.11209 -2.31136,2.25306 -3.50144,5.74923 -2.96189,8.7013 0.64561,3.53239 2.82646,6.37592 5.72049,7.45871 2.36884,0.8863 3.67375,0.95374 6.0168,0.31093 1.12216,-0.30787 2.40156,-0.55975 2.84312,-0.55975 1.17768,0 1.98819,0.95811 2.37324,2.80543 0.63735,3.05774 -0.52617,4.4446 -4.42121,5.26992 -2.53627,0.53739 -6.40235,0.47437 -8.7579,-0.14277 z m 96.64472,0.0746 c -4.96872,-1.77977 -8.83409,-6.52346 -10.02885,-12.30762 -0.52221,-2.52823 -0.53251,-6.88583 -0.022,-9.32561 0.81635,-3.90165 3.64701,-8.16168 6.82476,-10.27094 4.44274,-2.94894 9.85152,-2.76029 16.19723,0.56486 1.08276,0.56737 2.03103,0.96919 2.10727,0.89297 0.0762,-0.0763 0.13861,-3.69658 0.13861,-8.04516 0,-6.41819 0.0728,-8.04733 0.38671,-8.65436 0.55258,-1.06858 2.18352,-1.63402 5.19923,-1.80256 2.37007,-0.13245 2.58298,-0.10237 3.12726,0.44194 0.56965,0.56964 0.58038,0.69611 0.43509,5.12968 -0.73976,22.57433 -0.75217,23.42669 -0.44731,30.7394 0.16986,4.07459 0.37921,8.18224 0.46522,9.12813 0.18834,2.07121 -0.24493,2.80056 -1.89015,3.18174 -1.64256,0.38058 -4.05587,0.30412 -5.0328,-0.15949 -0.84627,-0.40158 -1.71408,-1.70963 -1.71408,-2.5836 0,-0.73964 -0.37624,-0.65886 -2.35937,0.50662 -3.3153,1.94845 -6.04546,2.81136 -9.2823,2.93392 -2.20178,0.0834 -3.05328,0.007 -4.10449,-0.36992 z m 10.00586,-7.73644 c 2.71027,-1.37202 4.8268,-4.56602 5.11528,-7.71933 0.39355,-4.30175 -1.64397,-8.44187 -5.03088,-10.22244 -1.18013,-0.62042 -1.66371,-0.71271 -3.7368,-0.71318 -2.81981,0 -3.87813,0.44349 -5.658,2.37442 -2.16787,2.35186 -3.24435,5.87717 -2.71401,8.88797 0.60916,3.45823 2.37795,5.99694 5.15297,7.396 1.47297,0.74258 1.8244,0.81367 3.61591,0.73131 1.4428,-0.0664 2.3313,-0.26686 3.25553,-0.73475 z m 78.26585,7.77774 c -2.3472,-0.63124 -4.527,-1.96416 -6.67187,-4.07969 -3.34084,-3.29514 -4.98474,-7.40198 -4.99492,-12.47833 -0.0163,-8.11495 4.11097,-14.35102 10.92196,-16.50262 5.3867,-1.70164 9.80884,-0.82034 14.04054,2.79821 1.72529,1.47532 2.10134,1.44775 2.40601,-0.17634 0.44082,-2.34974 0.84669,-2.59641 4.00952,-2.43668 1.75583,0.0887 2.08016,0.18507 2.54474,0.75647 0.58187,0.71569 0.57237,1.72257 -0.067,7.10268 -0.36261,3.05107 -0.21802,12.41605 0.27964,18.11457 0.45447,5.20393 0.39677,5.36816 -2.13471,6.07436 -3.00255,0.83759 -5.03878,0.31101 -5.41465,-1.40029 -0.0892,-0.40637 -0.37047,-0.92728 -0.62492,-1.15755 -0.42452,-0.3842 -0.55954,-0.36446 -1.63864,0.23927 -6.08468,3.4042 -9.00033,4.12898 -12.65568,3.14594 z m 8.90733,-7.5317 c 2.4543,-1.22643 4.15692,-3.45279 4.93982,-6.45936 0.52102,-2.00086 0.51927,-3.48369 -0.007,-5.51275 -0.77637,-2.99606 -2.28807,-5.13286 -4.58783,-6.48483 -1.08905,-0.64024 -1.46912,-0.71255 -3.72628,-0.70887 -2.1304,0.003 -2.71518,0.10334 -3.83646,0.65516 -4.11631,2.02573 -6.27515,7.11785 -5.04817,11.9072 0.69559,2.71521 1.96543,4.54499 4.17576,6.0171 1.47222,0.98052 2.80019,1.368 4.73276,1.38086 1.42849,0.01 2.03528,-0.13409 3.3569,-0.79451 z m 63.42303,7.20936 c -3.50086,-1.21057 -6.65115,-4.07252 -8.30781,-7.54748 -1.52665,-3.20222 -1.97808,-5.28407 -1.98948,-9.1745 -0.007,-2.36802 0.12329,-3.79333 0.45852,-5.01872 1.55382,-5.67989 5.50884,-9.99676 10.33658,-11.28224 3.89575,-1.03729 8.82624,0.0546 13.46248,2.98128 0.5565,0.35131 1.13675,0.56152 1.28947,0.46715 0.18696,-0.11555 0.25141,-2.82829 0.19733,-8.30271 -0.0737,-7.45657 -0.041,-8.19124 0.39452,-8.85587 0.66095,-1.00872 1.76202,-1.38134 4.59343,-1.5544 2.11698,-0.12941 2.51968,-0.0846 3.04271,0.33896 0.58637,0.47482 0.60079,0.59875 0.52866,4.54641 -0.0408,2.23203 -0.19098,6.49904 -0.33377,9.48222 -0.34719,7.25271 -0.36103,19.98544 -0.0293,26.9875 0.33277,7.02442 0.55137,6.6004 -3.4472,6.68655 -3.14793,0.0678 -3.74415,-0.18973 -4.05784,-1.75305 -0.42846,-2.13529 -0.53178,-2.16752 -2.54833,-0.79491 -1.8166,1.23647 -4.19275,2.32412 -6.23165,2.85244 -2.1467,0.55626 -5.66105,0.52827 -7.3583,-0.0586 z m 9.59871,-6.92711 c 2.63329,-1.19523 5.01333,-4.33475 5.67402,-7.48458 0.8827,-4.20831 -1.57412,-9.37488 -5.38724,-11.32914 -1.61123,-0.8258 -4.45743,-0.98904 -6.34217,-0.36381 -1.98165,0.65744 -4.41031,3.09412 -5.26415,5.28162 -0.89318,2.28824 -0.91889,6.49591 -0.0528,8.63787 1.00033,2.47394 3.12981,4.5402 5.58244,5.41663 1.47791,0.52814 4.45672,0.44654 5.78993,-0.15859 z m -212.56612,6.85041 c -1.75131,-0.5076 -1.73553,-0.39365 -1.8055,-13.04227 -0.0516,-9.32457 -0.14198,-11.79483 -0.49493,-13.52489 -0.45536,-2.23208 -0.55091,-3.77454 -0.27788,-4.48606 0.21881,-0.5702 1.48196,-1.20248 2.4023,-1.20248 0.40746,0 1.5572,-0.17081 2.55498,-0.37957 1.15089,-0.2408 2.03585,-0.29528 2.42059,-0.14899 0.79335,0.30163 1.45361,1.26656 1.45361,2.12437 0,0.96475 0.65214,1.78776 1.14649,1.4469 6.05102,-4.17222 6.78012,-4.46889 11.02435,-4.4858 2.80779,-0.0111 3.17005,0.0467 4.6922,0.74975 2.08123,0.96128 3.76009,2.72277 4.58226,4.80777 0.6103,1.54768 0.62354,1.78295 0.7884,14.00953 0.18413,13.65631 0.19104,13.58477 -1.36306,14.12653 -0.4627,0.16129 -1.75824,0.29326 -2.87897,0.29326 -1.12074,0 -2.41628,-0.13197 -2.87898,-0.29326 -1.58619,-0.55296 -1.61894,-0.78465 -1.61894,-11.45453 0,-5.96627 -0.11014,-10.17098 -0.28816,-11.00108 -0.50861,-2.37157 -2.11405,-3.70946 -4.45127,-3.70946 -2.89493,0 -6.13307,2.03972 -7.33467,4.62013 -0.61389,1.31831 -0.62076,1.43515 -0.62331,10.60069 -0.003,10.27588 0.0207,10.12938 -1.74846,10.86858 -0.97844,0.40883 -4.00998,0.45508 -5.30105,0.0809 z m 73.2762,-0.23223 c -1.15107,-0.48514 -1.18691,-0.86913 -0.8575,-9.18614 0.29648,-7.48573 0.20228,-24.53532 -0.18344,-33.20413 l -0.16107,-3.61992 0.67954,-0.67956 c 0.65772,-0.65772 0.78659,-0.67955 4.0109,-0.67955 3.20616,0 3.35635,0.0249 3.99693,0.66558 l 0.66558,0.66559 -0.0823,8.08466 -0.0823,8.08469 0.87377,0.7834 0.87377,0.78341 10.59138,-0.0748 10.59139,-0.0748 0.80678,-0.90319 0.80678,-0.9032 -0.1648,-3.33013 c -0.0906,-1.83158 -0.24244,-5.37236 -0.33734,-7.86844 l -0.17255,-4.53827 0.68724,-0.68725 c 0.66715,-0.66715 0.7846,-0.68723 4.01858,-0.68723 3.18421,0 3.36003,0.0287 3.98078,0.64942 l 0.64943,0.64944 v 22.35457 22.35457 l -0.63855,0.74234 -0.63855,0.74237 h -3.48587 c -4.91791,0 -4.49744,0.96583 -4.49744,-10.33085 0,-5.14228 -0.10984,-9.37048 -0.25322,-9.74759 -0.54372,-1.4301 -0.9743,-1.48511 -11.62267,-1.48511 -5.57855,0 -10.07133,0.10867 -10.45034,0.25279 -0.36567,0.13901 -0.87788,0.57787 -1.13825,0.97525 -0.43628,0.66585 -0.46655,1.44002 -0.38605,9.87393 0.1084,11.35899 0.48059,10.43483 -4.23748,10.52166 -1.79582,0.0331 -3.52522,-0.0495 -3.84313,-0.18349 z m 87.05144,-0.13001 c -0.46149,-0.20074 -0.95137,-0.58304 -1.08861,-0.84953 -0.14157,-0.2749 -0.26767,-4.94934 -0.29143,-10.8033 -0.0394,-9.71966 -0.24363,-13.57882 -0.83302,-15.74271 -0.46672,-1.71366 -0.32406,-2.81782 0.44199,-3.42038 0.38341,-0.3016 1.0233,-0.54837 1.42192,-0.54837 0.39865,0 1.24579,-0.18698 1.88256,-0.41553 1.41986,-0.50959 3.24824,-0.57452 3.77878,-0.1342 0.38034,0.31565 0.72544,1.20161 1.0644,2.73254 0.096,0.4337 0.33697,0.7276 0.5965,0.7276 0.23945,0 1.60449,-0.78578 3.03342,-1.74622 3.31997,-2.23142 5.06725,-2.81069 8.55964,-2.83768 3.2198,-0.0249 4.99473,0.57197 6.96272,2.34138 2.70246,2.42972 3.01877,4.55006 2.90605,19.4791 -0.0737,9.76063 -0.1131,10.52713 -0.56732,11.02876 -0.44262,0.48884 -0.76898,0.5343 -3.50128,0.48762 -2.74182,-0.0468 -3.06715,-0.10549 -3.61291,-0.65132 l -0.59976,-0.59986 0.0933,-9.60935 c 0.0642,-6.6111 -0.003,-10.07095 -0.21381,-11.08874 -0.81164,-3.90962 -3.78587,-5.3788 -7.82762,-3.86657 -1.85131,0.69268 -4.40071,3.08454 -4.91918,4.61526 -0.26755,0.78988 -0.3609,3.33076 -0.38055,10.35944 -0.0285,10.18884 0.0183,9.88433 -1.62648,10.57188 -1.09656,0.45836 -4.19729,0.44087 -5.27933,-0.0298 z M 98.364634,328.30937 c -0.08575,41.26702 -0.04287,20.63351 0,0 z"
         style="fill:#fdac5e;stroke-width:0.26458332" />
      <path
         id="path31"
         d="m 462.31265,389.25453 c -1.09477,-0.57589 -2.12815,-2.43223 -2.32469,-4.17589 -0.19042,-1.68918 0.14971,-1.99456 2.22142,-1.99456 4.55446,0 7.79626,-2.71889 6.97209,-5.84745 -0.34171,-1.29704 -3.41733,-6.04137 -6.15352,-9.49209 -3.10719,-3.91858 -3.88745,-6.17312 -4.09364,-11.8287 -0.0752,-2.06393 -0.0505,-4.90368 0.055,-6.31055 0.23395,-3.12068 0.58288,-3.64932 2.16617,-3.28187 0.5582,0.12954 1.73631,0.23837 2.618,0.24183 2.68931,0.0106 2.62935,-0.12901 2.6357,6.13738 0.005,4.9284 0.0561,5.51995 0.6114,7.07139 0.87001,2.43078 2.00888,4.59846 3.76733,7.17047 1.95027,2.85258 3.15602,4.04289 3.97599,3.92499 1.4305,-0.20566 5.02037,-6.05205 6.47161,-10.53957 0.63352,-1.95892 0.72993,-2.69253 0.74768,-5.68854 0.0111,-1.89177 -0.0818,-4.279 -0.20672,-5.30498 -0.28667,-2.35473 0.0154,-2.7637 2.04251,-2.76711 0.75358,0 1.96548,-0.0707 2.69309,-0.15431 2.37847,-0.27326 2.34746,-0.357 2.57286,6.94722 0.27445,8.8941 0.11268,9.42533 -5.17126,16.98411 -1.79472,2.56738 -5.02491,7.26045 -7.17814,10.42902 -2.15326,3.16857 -4.43008,6.21441 -5.0596,6.76855 -1.42415,1.25359 -3.25782,1.86097 -6.1825,2.04785 -1.87142,0.11959 -2.42376,0.061 -3.18076,-0.33719 z m -359.18184,-9.33101 c -0.81659,-0.33422 -1.34899,-1.0823 -1.79916,-2.52798 -0.53182,-1.70797 -0.98006,-3.93401 -0.97492,-4.84167 0.008,-1.44319 0.16218,-1.4963 4.81436,-1.65989 4.92686,-0.17327 7.00983,-0.63796 8.54995,-1.90746 1.76116,-1.45169 2.4595,-4.08038 1.61863,-6.09285 -0.57719,-1.38142 -2.75386,-3.08464 -6.65769,-5.20959 -6.89358,-3.75235 -9.123047,-6.89504 -9.123047,-12.86002 0,-6.0638 3.637557,-10.69457 10.188997,-12.97104 1.87914,-0.65297 2.49645,-0.73602 5.55371,-0.74711 2.91228,-0.0106 3.72352,0.0817 5.29167,0.60188 2.02167,0.67061 4.42078,1.91047 5.35781,2.76897 0.74563,0.6831 0.78065,1.95617 0.0866,3.15 -0.27977,0.48127 -0.70418,1.55704 -0.94315,2.39064 -0.48776,1.70148 -1.35814,2.58543 -2.54573,2.58543 -0.41315,0 -1.65438,-0.3588 -2.75829,-0.79732 -2.59842,-1.0322 -5.11027,-1.45572 -7.12597,-1.20148 -1.33372,0.16822 -1.7302,0.35063 -2.55513,1.17555 -1.26038,1.26039 -1.57559,2.90991 -0.89607,4.68921 0.56674,1.48399 1.69397,2.33778 6.30925,4.77882 5.4074,2.85999 7.89578,5.29672 9.20766,9.0165 0.68315,1.93701 0.91845,5.29717 0.50893,7.26763 -1.00623,4.84163 -5.75433,9.65348 -11.26055,11.41169 -3.18945,1.01846 -9.38631,1.57832 -10.84791,0.98009 z m 40.56879,-0.003 c -7.35527,-1.3431 -12.15246,-5.54865 -13.89554,-12.18181 -0.60202,-2.29095 -0.60305,-6.96169 -0.002,-9.15432 1.33021,-4.85277 4.21369,-8.8183 7.98516,-10.98166 7.44417,-4.27011 16.08061,-2.27883 20.87658,4.81346 1.289,1.90616 2.27848,5.07312 2.27848,7.29255 0,2.74082 -0.99867,4.26895 -3.17236,4.85426 -1.00863,0.27159 -9.36011,0.94265 -15.41541,1.23864 -3.62563,0.17725 -4.08862,0.36301 -3.79735,1.52353 0.27553,1.09778 2.9252,3.72239 4.45683,4.41468 1.17252,0.52996 1.80873,0.62796 4.03766,0.62201 3.57403,-0.01 5.76923,-0.75317 8.32851,-2.82126 0.89543,-0.72355 1.93277,-0.94025 2.56784,-0.53641 0.17215,0.10948 0.7377,0.90432 1.25677,1.76633 1.71258,2.84403 1.13978,4.46106 -2.31657,6.53976 -3.15365,1.89666 -5.55385,2.62377 -9.0428,2.73939 -1.60073,0.053 -3.46633,-0.005 -4.14579,-0.12915 z m -0.21983,-20.65178 c 3.87283,-0.33584 6.61851,-0.73462 7.47447,-1.08554 0.93356,-0.38274 0.94239,-1.11984 0.0303,-2.52653 -2.30423,-3.55364 -7.93868,-3.66435 -11.40736,-0.2241 -1.16269,1.15316 -1.38906,1.5327 -1.38906,2.32897 0,0.68313 0.16578,1.06743 0.58804,1.36318 0.66836,0.46813 0.88838,0.47488 4.70363,0.14402 z m 60.52697,20.64919 c -3.67634,-0.66916 -6.58203,-2.16339 -9.05912,-4.6586 -3.07266,-3.09515 -4.71747,-6.53219 -5.12034,-10.69961 -0.98656,-10.20535 5.77255,-18.33965 15.96908,-19.21812 7.42791,-0.63995 14.94871,4.92612 16.929,12.52897 0.58558,2.24819 0.51843,6.91148 -0.13673,9.49505 -1.56295,6.16347 -5.84946,10.58484 -11.77241,12.14279 -1.97523,0.51954 -5.1545,0.71075 -6.80948,0.40952 z m 6.09891,-8.10329 c 1.60589,-0.80025 2.9129,-2.28843 3.94454,-4.49132 0.67533,-1.44206 0.73478,-1.82589 0.73478,-4.74401 0,-3.0475 -0.0334,-3.23877 -0.83218,-4.7625 -1.62257,-3.09528 -3.74491,-4.62021 -6.72828,-4.83439 -3.70911,-0.26627 -6.73132,1.57417 -8.5066,5.18028 -0.80064,1.62631 -0.86502,1.95051 -0.84979,4.27876 0.0257,3.93409 1.41111,6.80112 4.18986,8.67095 1.61963,1.08987 2.48317,1.33525 4.80369,1.36491 1.50976,0.0193 2.12946,-0.10729 3.24398,-0.66268 z m -35.87719,7.56079 c -4.46647,-1.17023 -8.4099,-4.18484 -10.3485,-7.91107 -1.59943,-3.07432 -2.23674,-6.05525 -2.06928,-9.6788 0.22957,-4.96747 1.56308,-8.16552 4.77806,-11.45887 1.98435,-2.03274 3.86909,-3.21685 6.65919,-4.1838 1.83835,-0.63709 2.52828,-0.73454 5.28913,-0.74708 2.80513,-0.0127 3.44513,0.0741 5.49392,0.74568 3.20033,1.04899 3.72269,1.67555 3.58987,4.30588 -0.0855,1.69349 -0.18816,2.01533 -0.86957,2.72656 -0.94356,0.98486 -1.71749,1.02653 -4.56381,0.24564 -3.58459,-0.98341 -6.25593,-0.3402 -8.77166,2.11209 -2.31136,2.25306 -3.50144,5.74923 -2.96189,8.7013 0.64561,3.53239 2.82646,6.37592 5.72049,7.45871 2.36884,0.8863 3.67375,0.95374 6.0168,0.31093 1.12216,-0.30787 2.40156,-0.55975 2.84312,-0.55975 1.17768,0 1.98819,0.95811 2.37324,2.80543 0.63735,3.05774 -0.52617,4.4446 -4.42121,5.26992 -2.53627,0.53739 -6.40235,0.47437 -8.7579,-0.14277 z m 96.64472,0.0746 c -4.96872,-1.77977 -8.83409,-6.52346 -10.02885,-12.30762 -0.52221,-2.52823 -0.53251,-6.88583 -0.022,-9.32561 0.81635,-3.90165 3.64701,-8.16168 6.82476,-10.27094 4.44274,-2.94894 9.85152,-2.76029 16.19723,0.56486 1.08276,0.56737 2.03103,0.96919 2.10727,0.89297 0.0762,-0.0763 0.13861,-3.69658 0.13861,-8.04516 0,-6.41819 0.0728,-8.04733 0.38671,-8.65436 0.55258,-1.06858 2.18352,-1.63402 5.19923,-1.80256 2.37007,-0.13245 2.58298,-0.10237 3.12726,0.44194 0.56965,0.56964 0.58038,0.69611 0.43509,5.12968 -0.73976,22.57433 -0.75217,23.42669 -0.44731,30.7394 0.16986,4.07459 0.37921,8.18224 0.46522,9.12813 0.18834,2.07121 -0.24493,2.80056 -1.89015,3.18174 -1.64256,0.38058 -4.05587,0.30412 -5.0328,-0.15949 -0.84627,-0.40158 -1.71408,-1.70963 -1.71408,-2.5836 0,-0.73964 -0.37624,-0.65886 -2.35937,0.50662 -3.3153,1.94845 -6.04546,2.81136 -9.2823,2.93392 -2.20178,0.0834 -3.05328,0.007 -4.10449,-0.36992 z m 10.00586,-7.73644 c 2.71027,-1.37202 4.8268,-4.56602 5.11528,-7.71933 0.39355,-4.30175 -1.64397,-8.44187 -5.03088,-10.22244 -1.18013,-0.62042 -1.66371,-0.71271 -3.7368,-0.71318 -2.81981,0 -3.87813,0.44349 -5.658,2.37442 -2.16787,2.35186 -3.24435,5.87717 -2.71401,8.88797 0.60916,3.45823 2.37795,5.99694 5.15297,7.396 1.47297,0.74258 1.8244,0.81367 3.61591,0.73131 1.4428,-0.0664 2.3313,-0.26686 3.25553,-0.73475 z m 78.56718,7.5451 c -1.9998,-0.45255 -3.74184,-1.36938 -5.72423,-3.01266 -4.19358,-3.47617 -6.23335,-8.51328 -5.90736,-14.58801 0.47908,-8.92757 5.80396,-14.71769 14.48658,-15.75226 3.08999,-0.36817 6.9365,1.00909 10.00556,3.58256 1.99676,1.67431 2.3876,1.59848 2.86634,-0.55607 0.17338,-0.78026 0.52355,-1.57096 0.77819,-1.75715 0.56832,-0.41558 3.41619,-0.44524 4.55724,-0.0475 1.16662,0.40669 1.26309,1.0923 0.74067,5.26523 -0.56002,4.47323 -0.57997,12.90413 -0.0435,18.38854 0.543,5.55109 0.52501,6.11582 -0.2185,6.85933 -0.84529,0.84529 -3.92147,1.41258 -5.26161,0.9703 -0.76745,-0.25328 -1.0374,-0.54882 -1.48481,-1.62539 -0.30075,-0.72371 -0.72462,-1.38403 -0.94194,-1.46743 -0.2194,-0.0842 -1.54895,0.50882 -2.9899,1.33361 -4.20992,2.40969 -7.56521,3.15312 -10.86271,2.40689 z m 8.5325,-6.87803 c 2.93491,-1.31083 5.3327,-5.01248 5.60842,-8.65825 0.17725,-2.34355 -0.19412,-4.1919 -1.27727,-6.35718 -1.0754,-2.14971 -2.14646,-3.25313 -4.08345,-4.20669 -1.578,-0.77684 -1.83806,-0.82467 -3.87996,-0.71358 -2.67972,0.14584 -4.187,0.76777 -6.02316,2.48529 -4.20303,3.93144 -4.27146,11.19907 -0.14438,15.33506 2.83406,2.84017 6.43602,3.61768 9.7998,2.11535 z m -139.47088,6.71163 c -1.75131,-0.5076 -1.73553,-0.39365 -1.8055,-13.04227 -0.0516,-9.32457 -0.14198,-11.79483 -0.49493,-13.52489 -0.45536,-2.23208 -0.55091,-3.77454 -0.27788,-4.48606 0.21881,-0.5702 1.48196,-1.20248 2.4023,-1.20248 0.40746,0 1.5572,-0.17081 2.55498,-0.37957 1.15089,-0.2408 2.03585,-0.29528 2.42059,-0.14899 0.79335,0.30163 1.45361,1.26656 1.45361,2.12437 0,0.96475 0.65214,1.78776 1.14649,1.4469 6.05102,-4.17222 6.78012,-4.46889 11.02435,-4.4858 2.80779,-0.0111 3.17005,0.0467 4.6922,0.74975 2.08123,0.96128 3.76009,2.72277 4.58226,4.80777 0.6103,1.54768 0.62354,1.78295 0.7884,14.00953 0.18413,13.65631 0.19104,13.58477 -1.36306,14.12653 -0.4627,0.16129 -1.75824,0.29326 -2.87897,0.29326 -1.12074,0 -2.41628,-0.13197 -2.87898,-0.29326 -1.58619,-0.55296 -1.61894,-0.78465 -1.61894,-11.45453 0,-5.96627 -0.11014,-10.17098 -0.28816,-11.00108 -0.50861,-2.37157 -2.11405,-3.70946 -4.45127,-3.70946 -2.89493,0 -6.13307,2.03972 -7.33467,4.62013 -0.61389,1.31831 -0.62076,1.43515 -0.62331,10.60069 -0.003,10.27588 0.0207,10.12938 -1.74846,10.86858 -0.97844,0.40883 -4.00998,0.45508 -5.30105,0.0809 z m 203.04017,-0.22574 c -4.4177,-1.41222 -8.0554,-5.65473 -9.51069,-11.09197 -0.7204,-2.69153 -0.7884,-7.63395 -0.13885,-10.09007 0.77451,-2.9286 2.43533,-5.96175 4.26773,-7.79415 4.70974,-4.70977 11.29027,-5.08794 18.18619,-1.04513 1.20462,0.7062 2.25523,1.15393 2.49338,1.06254 0.36205,-0.13893 0.40412,-1.15245 0.3498,-8.42759 -0.0652,-8.73757 -0.0381,-8.96255 1.17115,-9.71775 0.29578,-0.18473 1.73668,-0.43243 3.20196,-0.55049 3.82919,-0.30851 3.71957,-0.47077 3.62167,5.36292 -0.0421,2.51047 -0.12091,4.63621 -0.1751,4.72387 -0.0542,0.0877 -0.21764,4.85963 -0.3633,10.60434 -0.24579,9.69534 -0.0403,22.65884 0.39611,24.98495 0.23548,1.25521 -0.30157,1.59485 -2.84866,1.80152 -3.23731,0.26268 -4.44881,-0.36676 -4.44881,-2.31145 0,-0.67091 -0.45387,-1.23108 -0.99743,-1.23108 -0.19933,0 -0.89061,0.36338 -1.53614,0.80753 -1.64338,1.13067 -4.71713,2.54082 -6.584,3.02057 -2.11185,0.54268 -5.1956,0.49545 -7.08501,-0.10856 z m 10.0371,-6.64782 c 1.9821,-0.96141 3.5438,-2.6326 4.68106,-5.00922 0.74909,-1.56544 0.82129,-1.9454 0.80449,-4.23334 -0.0206,-2.79913 -0.52652,-4.4908 -2.01533,-6.73848 -2.27933,-3.44115 -7.02754,-4.90112 -10.56934,-3.24983 -2.18035,1.01656 -3.52538,2.34839 -4.63113,4.58571 -0.89077,1.80239 -0.98735,2.21628 -1.09244,4.68206 -0.0986,2.31328 -0.0322,2.92479 0.45855,4.22342 0.82132,2.17339 2.06113,3.83931 3.72287,5.00237 2.79191,1.95402 5.63298,2.19646 8.64127,0.73731 z m -139.53649,6.3599 c -1.1025,-0.43254 -1.15503,-0.90337 -0.84542,-7.57778 0.28562,-6.15748 0.16024,-28.86839 -0.19357,-35.06099 -0.15886,-2.78032 -0.15033,-2.83811 0.51728,-3.50573 0.65059,-0.65059 0.80623,-0.67879 3.74556,-0.67879 2.92053,0 3.09838,0.0316 3.72992,0.66315 l 0.66316,0.66318 -0.18536,7.60828 c -0.16598,6.81278 -0.13928,7.69739 0.25534,8.46047 0.85105,1.64577 0.9196,1.65503 12.25869,1.65394 9.69827,0 10.31235,-0.0294 11.10876,-0.51501 0.46365,-0.28271 0.9866,-0.78232 1.1621,-1.11027 0.3658,-0.6835 0.35899,-3.80902 -0.0211,-9.67637 -0.38798,-5.98958 -0.36875,-6.34399 0.3852,-7.09795 0.61481,-0.61481 0.8129,-0.64942 3.71619,-0.64942 2.90329,0 3.10138,0.0346 3.71619,0.64942 l 0.64944,0.64945 v 22.20772 c 0,21.4693 -0.0168,22.22847 -0.50566,22.83232 -0.4833,0.59701 -0.65399,0.62463 -3.85954,0.62463 -4.76698,0 -4.36605,0.95914 -4.36605,-10.44466 0,-8.98367 -0.013,-9.21195 -0.56392,-9.91233 -0.31015,-0.3943 -0.86931,-0.83301 -1.24258,-0.97493 -0.39602,-0.15058 -4.72356,-0.25847 -10.39061,-0.25911 -10.80809,0 -11.32446,0.0686 -11.97594,1.61798 -0.26694,0.63484 -0.31656,2.80048 -0.22305,9.73333 0.14859,11.01588 0.47366,10.16929 -3.94052,10.26253 -1.65908,0.0351 -3.27661,-0.0383 -3.59452,-0.16306 z m 87.05144,-0.0969 c -0.46149,-0.20969 -0.94467,-0.59931 -1.07376,-0.8658 -0.12909,-0.26651 -0.26651,-5.29574 -0.30535,-11.17608 -0.0518,-7.83368 -0.17444,-11.33446 -0.4589,-13.09687 -0.72035,-4.46286 -0.72329,-4.52343 -0.24384,-5.00288 0.2444,-0.24442 0.76348,-0.50839 1.15348,-0.58661 0.39002,-0.0782 1.3149,-0.31652 2.05528,-0.52956 1.88034,-0.54105 3.36344,-0.50133 3.91195,0.10475 0.24495,0.27067 0.53221,1.00089 0.63838,1.62274 0.11809,0.69178 0.40386,1.27064 0.73629,1.49135 0.49455,0.32838 0.76229,0.2091 2.98574,-1.3304 3.06493,-2.12212 4.37502,-2.68573 7.11332,-3.06033 3.72602,-0.50972 6.88015,0.41685 9.05791,2.66089 2.06592,2.12881 2.37103,4.48529 2.38119,18.39095 0.007,10.02233 -0.10668,11.33342 -1.00713,11.58353 -0.35933,0.0998 -4.55922,0.0492 -5.7894,-0.0697 -0.8772,-0.0848 -0.96653,-1.13247 -0.9841,-11.54046 l -0.0175,-10.31875 -0.79375,-1.57568 c -1.08654,-2.15691 -1.807,-2.62506 -4.22801,-2.74732 -1.67437,-0.0845 -2.16879,0 -3.47382,0.59803 -2.21922,1.016 -3.65768,2.30847 -4.51713,4.05866 l -0.74562,1.51839 -0.0317,9.14186 c -0.0175,5.02801 -0.10538,9.37408 -0.1955,9.65792 -0.0901,0.28387 -0.43302,0.6853 -0.76205,0.89207 -0.85945,0.5401 -4.35679,0.65612 -5.4061,0.17934 z M 98.364634,328.30937 c -0.08575,41.26702 -0.04287,20.63351 0,0 z"
         style="fill:#9fa2a2;stroke-width:0.26458332" />
      <path
         id="path29"
         d="m 462.31265,389.25453 c -1.09477,-0.57589 -2.12815,-2.43223 -2.32469,-4.17589 -0.19042,-1.68918 0.14971,-1.99456 2.22142,-1.99456 4.55446,0 7.79626,-2.71889 6.97209,-5.84745 -0.34171,-1.29704 -3.41733,-6.04137 -6.15352,-9.49209 -3.10719,-3.91858 -3.88745,-6.17312 -4.09364,-11.8287 -0.0752,-2.06393 -0.0505,-4.90368 0.055,-6.31055 0.23395,-3.12068 0.58288,-3.64932 2.16617,-3.28187 0.5582,0.12954 1.73631,0.23837 2.618,0.24183 2.68931,0.0106 2.62935,-0.12901 2.6357,6.13738 0.005,4.9284 0.0561,5.51995 0.6114,7.07139 0.87001,2.43078 2.00888,4.59846 3.76733,7.17047 1.95027,2.85258 3.15602,4.04289 3.97599,3.92499 1.4305,-0.20566 5.02037,-6.05205 6.47161,-10.53957 0.63352,-1.95892 0.72993,-2.69253 0.74768,-5.68854 0.0111,-1.89177 -0.0818,-4.279 -0.20672,-5.30498 -0.28667,-2.35473 0.0154,-2.7637 2.04251,-2.76711 0.75358,0 1.96548,-0.0707 2.69309,-0.15431 2.37847,-0.27326 2.34746,-0.357 2.57286,6.94722 0.27445,8.8941 0.11268,9.42533 -5.17126,16.98411 -1.79472,2.56738 -5.02491,7.26045 -7.17814,10.42902 -2.15326,3.16857 -4.43008,6.21441 -5.0596,6.76855 -1.42415,1.25359 -3.25782,1.86097 -6.1825,2.04785 -1.87142,0.11959 -2.42376,0.061 -3.18076,-0.33719 z M 102.9831,379.51974 c -0.836,-0.45471 -1.19367,-1.21951 -1.84948,-3.95478 -0.59137,-2.46652 -0.64777,-3.62071 -0.19885,-4.06963 0.21521,-0.21521 1.47253,-0.31898 3.9026,-0.32211 3.6494,-0.005 6.45792,-0.41407 7.87785,-1.14834 3.00927,-1.55615 4.12847,-5.42491 2.34779,-8.1157 -0.77524,-1.17147 -3.25548,-2.88472 -7.67744,-5.30325 -3.08719,-1.68849 -4.72963,-3.09343 -5.8972,-5.04436 -2.23359,-3.73219 -2.23359,-9.42539 0,-13.15339 1.24141,-2.07201 3.64797,-4.17971 6.13285,-5.37126 5.26011,-2.52227 10.78289,-2.3981 16.08302,0.36158 2.48677,1.29479 2.94874,1.98017 2.33159,3.45914 -0.19517,0.46773 -0.64345,1.68383 -0.99619,2.70248 -0.68743,1.98517 -1.357,2.77812 -2.34585,2.77812 -0.34046,0 -1.78579,-0.42256 -3.21184,-0.939 -5.74824,-2.0818 -9.76747,-1.32694 -10.66409,2.00287 -0.81025,3.00902 0.58088,4.94908 5.29316,7.38182 5.55447,2.8675 8.16182,5.00732 9.62875,7.90215 2.71811,5.36395 1.73127,11.20849 -2.62296,15.53446 -2.1214,2.10761 -4.04057,3.3298 -6.65826,4.24016 -3.78392,1.3159 -9.95593,1.8855 -11.47545,1.05904 z m 40.19555,-0.008 c -5.11352,-0.96613 -8.99837,-3.55309 -11.42926,-7.6109 -2.12352,-3.5447 -2.80288,-9.59872 -1.53473,-13.67634 0.82171,-2.64216 2.11093,-5.14318 3.58222,-6.94934 2.42332,-2.97489 6.9924,-5.27817 11.21531,-5.65367 7.74202,-0.68839 15.66549,6.44729 15.66549,14.10798 0,2.45235 -0.93653,3.9101 -2.91042,4.5302 -0.88029,0.27654 -9.05244,0.94567 -15.61041,1.2782 -1.67349,0.0849 -3.25107,0.26162 -3.50573,0.3928 -0.77404,0.39876 -0.54382,1.52152 0.62178,3.03234 2.14349,2.77839 4.91812,3.97994 8.59172,3.7207 2.70802,-0.19111 4.79313,-0.91686 6.99575,-2.43496 0.94782,-0.65325 1.98355,-1.18774 2.30164,-1.18774 0.99678,0 2.72192,2.78366 2.72192,4.39203 0,1.22672 -0.93448,2.31254 -3.09757,3.59924 -4.26117,2.53473 -8.83441,3.36129 -13.60771,2.45946 z m 3.51849,-20.2455 c 3.34157,-0.48633 4.66841,-0.80433 4.99425,-1.19695 0.56863,-0.68513 0.0511,-2.19075 -1.17427,-3.41608 -2.73479,-2.73482 -7.20324,-2.65878 -10.81563,0.18404 -1.76943,1.39248 -2.31441,3.36857 -1.22849,4.4545 0.50904,0.50903 0.76052,0.53874 3.41582,0.4033 1.57648,-0.0804 3.74022,-0.27336 4.80832,-0.42881 z m 56.84251,20.2665 c -3.68825,-0.77173 -6.2614,-2.19083 -8.73775,-4.81888 -3.23802,-3.43638 -4.47522,-6.43128 -4.68516,-11.34139 -0.16152,-3.77756 0.19388,-5.52836 1.77877,-8.76274 1.20619,-2.46155 3.29077,-4.7947 5.60801,-6.27671 4.29511,-2.74695 9.96649,-3.52112 14.29227,-1.95095 2.61344,0.94863 4.11018,1.92722 6.32514,4.13551 1.58553,1.58076 2.24097,2.48457 3.0863,4.25593 1.4655,3.07086 1.74722,4.57695 1.59156,8.50847 -0.21326,5.38628 -1.7857,9.00317 -5.373,12.35893 -3.48651,3.26144 -9.21962,4.86825 -13.88614,3.89183 z m 6.4106,-7.36028 c 2.43593,-1.02359 4.75622,-4.5108 5.22957,-7.85961 0.63428,-4.4873 -1.59727,-9.24787 -5.15735,-11.00219 -1.61506,-0.79587 -5.65864,-0.74123 -7.23984,0.0978 -2.79375,1.48249 -5.03255,4.97515 -5.26418,8.21243 -0.54253,7.58254 6.09353,13.21493 12.4318,10.55156 z m -35.2051,7.08432 c -4.12355,-0.93972 -8.29243,-3.85201 -10.23947,-7.15306 -3.02729,-5.13255 -3.28475,-12.07193 -0.6515,-17.55979 2.58199,-5.38099 8.61324,-9.0361 14.89861,-9.02898 3.10928,0.003 7.7492,1.45928 8.37438,2.62744 0.15038,0.28102 0.27343,1.21552 0.27343,2.07669 0,1.19639 -0.14346,1.77784 -0.60816,2.46478 -0.55778,0.82457 -0.71665,0.89773 -1.91822,0.88323 -0.72055,-0.009 -2.0197,-0.21704 -2.88702,-0.46302 -0.86732,-0.24598 -2.14278,-0.44723 -2.83435,-0.44723 -3.15952,0 -6.36404,2.27741 -8.07462,5.73853 -0.89648,1.81393 -0.98009,2.17233 -0.96648,4.14287 0.0174,2.52026 0.61774,4.3466 2.15314,6.55021 0.80908,1.1612 1.36397,1.61401 2.97203,2.42528 2.63738,1.33056 4.5284,1.53265 7.08232,0.75692 3.3108,-1.00563 4.16422,-0.6381 4.81471,2.07343 0.58835,2.45253 -0.29311,3.82498 -2.98705,4.6509 -1.95364,0.59896 -7.2724,0.74708 -9.40175,0.2618 z m 96.72572,0.10031 c -2.87295,-0.67702 -6.90944,-4.09181 -8.57389,-7.25329 -1.65718,-3.14764 -2.07451,-5.0904 -2.07451,-9.65729 0,-3.50227 0.0857,-4.37145 0.58682,-5.95313 1.31164,-4.13969 4.34886,-7.806 7.93364,-9.57694 l 2.03719,-1.00639 3.32013,0.0122 c 3.07083,0.0114 3.4857,0.0751 5.52503,0.84947 1.21269,0.46051 2.96988,1.26508 3.90487,1.78795 0.93498,0.52287 1.81802,0.87773 1.96229,0.78856 0.1639,-0.10128 0.26232,-3.1279 0.26232,-8.06677 0,-4.38325 0.11261,-8.20084 0.25278,-8.56951 0.44841,-1.17944 1.40326,-1.55504 4.58095,-1.80203 2.66059,-0.20677 2.98698,-0.18322 3.41689,0.2467 0.45229,0.45228 0.45942,0.95565 0.14724,10.39249 -0.3965,11.98584 -0.37983,25.82892 0.0382,31.68528 0.21017,2.94471 0.22202,4.46493 0.0375,4.80971 -0.35042,0.65476 -2.76484,1.16493 -4.81233,1.01682 -1.86671,-0.13502 -2.79653,-0.86419 -3.03949,-2.38358 -0.0891,-0.55737 -0.2548,-1.07072 -0.36816,-1.14078 -0.11337,-0.0701 -1.56713,0.58745 -3.23058,1.46116 -4.49564,2.36128 -8.51757,3.15825 -11.90686,2.35945 z m 9.39905,-7.34981 c 1.77249,-0.86701 3.58033,-2.77863 4.53715,-4.79758 0.74689,-1.57599 0.81412,-1.94287 0.80019,-4.3664 -0.0209,-3.64077 -0.64236,-5.20276 -3.01594,-7.58063 -1.9991,-2.00271 -3.44255,-2.6077 -6.21114,-2.60323 -5.15397,0.008 -9.46192,6.01091 -8.40247,11.70784 0.65424,3.518 3.23371,6.98328 5.93254,7.96975 1.67622,0.6127 4.75984,0.45281 6.35967,-0.32975 z m 78.5763,7.25083 c -1.9998,-0.45255 -3.74184,-1.36938 -5.72423,-3.01266 -4.19358,-3.47617 -6.23335,-8.51328 -5.90736,-14.58801 0.47908,-8.92757 5.80396,-14.71769 14.48658,-15.75226 3.08999,-0.36817 6.9365,1.0091 10.00556,3.58256 1.99676,1.67431 2.3876,1.59849 2.86634,-0.55607 0.17338,-0.78026 0.52355,-1.57096 0.77819,-1.75715 0.56832,-0.41558 3.41619,-0.44524 4.55724,-0.0475 1.16662,0.40669 1.26309,1.0923 0.74067,5.26523 -0.56002,4.47323 -0.57997,12.90413 -0.0435,18.38854 0.543,5.55109 0.52501,6.11582 -0.2185,6.85933 -0.84529,0.84529 -3.92147,1.41258 -5.26161,0.9703 -0.76745,-0.25328 -1.0374,-0.54882 -1.48481,-1.62539 -0.30075,-0.72371 -0.72462,-1.38403 -0.94194,-1.46743 -0.2194,-0.0842 -1.54895,0.50882 -2.9899,1.33361 -4.20992,2.40969 -7.56521,3.15312 -10.86271,2.40689 z m 8.5325,-6.87803 c 2.93491,-1.31083 5.3327,-5.01248 5.60842,-8.65825 0.17725,-2.34355 -0.19412,-4.1919 -1.27727,-6.35717 -1.0754,-2.14972 -2.14646,-3.25314 -4.08345,-4.20669 -1.578,-0.77685 -1.83806,-0.82468 -3.87996,-0.71359 -2.67972,0.14584 -4.187,0.76777 -6.02316,2.48529 -4.20303,3.93144 -4.27146,11.19907 -0.14438,15.33506 2.83406,2.84017 6.43602,3.61768 9.7998,2.11535 z m 63.56929,6.48589 c -4.4177,-1.41222 -8.0554,-5.65473 -9.51069,-11.09197 -0.7204,-2.69153 -0.7884,-7.63394 -0.13885,-10.09007 0.77451,-2.9286 2.43533,-5.96175 4.26773,-7.79415 4.70974,-4.70977 11.29027,-5.08794 18.18619,-1.04513 1.20462,0.7062 2.25523,1.15393 2.49338,1.06254 0.36205,-0.13893 0.40412,-1.15245 0.3498,-8.42759 -0.0652,-8.73757 -0.0381,-8.96255 1.17115,-9.71775 0.29578,-0.18473 1.73668,-0.43243 3.20196,-0.55049 3.82919,-0.3085 3.71957,-0.47077 3.62167,5.36292 -0.0421,2.51047 -0.12091,4.63621 -0.1751,4.72387 -0.0542,0.0877 -0.21764,4.85963 -0.3633,10.60434 -0.24579,9.69534 -0.0403,22.65884 0.39611,24.98495 0.23548,1.25521 -0.30157,1.59486 -2.84866,1.80152 -3.23731,0.26268 -4.44881,-0.36676 -4.44881,-2.31145 0,-0.67091 -0.45387,-1.23108 -0.99743,-1.23108 -0.19933,0 -0.89061,0.36338 -1.53614,0.80753 -1.64338,1.13067 -4.71713,2.54082 -6.584,3.02057 -2.11185,0.54268 -5.1956,0.49546 -7.08501,-0.10856 z m 10.0371,-6.64782 c 1.9821,-0.96141 3.5438,-2.6326 4.68106,-5.00922 0.74909,-1.56544 0.82129,-1.9454 0.80449,-4.23333 -0.0206,-2.79914 -0.52652,-4.4908 -2.01533,-6.73849 -2.27933,-3.44115 -7.02754,-4.90112 -10.56934,-3.24983 -2.18035,1.01656 -3.52538,2.34839 -4.63113,4.58571 -0.89077,1.80239 -0.98735,2.21628 -1.09244,4.68207 -0.0986,2.31327 -0.0322,2.92478 0.45855,4.22341 0.82132,2.17339 2.06113,3.83931 3.72287,5.00237 2.79191,1.95403 5.63298,2.19646 8.64127,0.73731 z m -212.74926,6.66729 c -0.42118,-0.0919 -1.00116,-0.48276 -1.28886,-0.86852 -0.5001,-0.67059 -0.5252,-1.19917 -0.57153,-12.03854 -0.0404,-9.45317 -0.12295,-11.71088 -0.49672,-13.58612 -0.9869,-4.95141 -0.82499,-5.12289 5.4,-5.7191 1.62871,-0.15597 1.77761,-0.12504 2.18281,0.45347 0.23919,0.34147 0.43488,0.95941 0.43488,1.37313 0,0.94147 0.43172,1.77583 0.91888,1.77583 0.2041,0 1.48802,-0.75729 2.85316,-1.68285 3.65576,-2.47859 4.94809,-2.91616 8.66338,-2.9333 2.74118,-0.0127 3.18811,0.0542 4.50998,0.67415 1.8346,0.86051 3.30518,2.1358 3.97353,3.44586 1.16722,2.28796 1.24932,3.26324 1.34075,15.92683 l 0.0872,12.08167 -0.5972,0.59745 c -0.54722,0.54748 -0.83957,0.59749 -3.49263,0.59749 -2.65935,0 -2.9446,-0.0491 -3.49864,-0.60219 l -0.60323,-0.60217 -0.13229,-10.77492 -0.1323,-10.77489 -0.73901,-1.25722 c -1.01677,-1.72971 -2.37175,-2.40692 -4.53085,-2.26449 -3.03782,0.2004 -5.98369,2.12995 -7.2521,4.75012 -0.55703,1.15067 -0.57491,1.47949 -0.57491,10.57021 0,10.4603 0.0256,10.30623 -1.79374,10.81151 -1.05914,0.29414 -3.41826,0.31774 -4.66059,0.0466 z m 73.21277,-0.30739 c -1.1025,-0.43254 -1.15503,-0.90337 -0.84542,-7.57777 0.28562,-6.15749 0.16024,-28.8684 -0.19357,-35.061 -0.15886,-2.78032 -0.15033,-2.83811 0.51728,-3.50573 0.65059,-0.65058 0.80623,-0.67879 3.74556,-0.67879 2.92053,0 3.09838,0.0316 3.72992,0.66315 l 0.66316,0.66318 -0.18536,7.60828 c -0.16598,6.81278 -0.13928,7.69739 0.25534,8.46048 0.85105,1.64576 0.9196,1.65502 12.25869,1.65393 9.69827,0 10.31235,-0.0294 11.10876,-0.51501 0.46365,-0.28271 0.9866,-0.78232 1.1621,-1.11027 0.3658,-0.6835 0.35899,-3.80902 -0.0211,-9.67637 -0.38798,-5.98958 -0.36875,-6.34399 0.3852,-7.09795 0.61481,-0.61481 0.8129,-0.64942 3.71619,-0.64942 2.90329,0 3.10138,0.0346 3.71619,0.64942 l 0.64944,0.64945 v 22.20772 c 0,21.4693 -0.0168,22.22847 -0.50566,22.83233 -0.4833,0.597 -0.65399,0.62462 -3.85954,0.62462 -4.76698,0 -4.36605,0.95914 -4.36605,-10.44466 0,-8.98366 -0.013,-9.21195 -0.56392,-9.91233 -0.31015,-0.3943 -0.86931,-0.83301 -1.24258,-0.97493 -0.39602,-0.15058 -4.72356,-0.25847 -10.39061,-0.25911 -10.80809,0 -11.32446,0.0686 -11.97594,1.61798 -0.26694,0.63484 -0.31656,2.80048 -0.22305,9.73333 0.14859,11.01588 0.47366,10.16929 -3.94052,10.26253 -1.65908,0.0351 -3.27661,-0.0383 -3.59452,-0.16306 z m 87.05144,-0.0969 c -0.46149,-0.20968 -0.94467,-0.59931 -1.07376,-0.8658 -0.12909,-0.26651 -0.26651,-5.29574 -0.30535,-11.17608 -0.0518,-7.83368 -0.17444,-11.33446 -0.4589,-13.09687 -0.72035,-4.46286 -0.72329,-4.52343 -0.24384,-5.00288 0.2444,-0.24442 0.76348,-0.50839 1.15348,-0.58661 0.39002,-0.0782 1.3149,-0.31652 2.05528,-0.52956 1.88034,-0.54105 3.36344,-0.50133 3.91195,0.10475 0.24495,0.27067 0.53221,1.00089 0.63838,1.62274 0.11809,0.69178 0.40386,1.27064 0.73629,1.49135 0.49455,0.32838 0.76229,0.2091 2.98574,-1.3304 3.06493,-2.12212 4.37502,-2.68573 7.11332,-3.06033 3.72602,-0.50972 6.88015,0.41685 9.05791,2.66089 2.06592,2.12881 2.37103,4.48529 2.38119,18.39095 0.007,10.02233 -0.10668,11.33342 -1.00713,11.58353 -0.35933,0.0998 -4.55922,0.0492 -5.7894,-0.0697 -0.8772,-0.0848 -0.96653,-1.13247 -0.9841,-11.54046 l -0.0175,-10.31875 -0.79375,-1.57568 c -1.08654,-2.15691 -1.807,-2.62506 -4.22801,-2.74732 -1.67437,-0.0845 -2.16879,0 -3.47382,0.59803 -2.21922,1.016 -3.65768,2.30847 -4.51713,4.05866 l -0.74562,1.51839 -0.0317,9.14186 c -0.0175,5.02801 -0.10538,9.37408 -0.1955,9.65792 -0.0901,0.28388 -0.43302,0.6853 -0.76205,0.89207 -0.85945,0.5401 -4.35679,0.65612 -5.4061,0.17934 z M 98.644009,328.06874 c -0.271999,41.42744 -0.136,20.71372 0,0 z"
         style="fill:#fd8815;stroke-width:0.26458332" />
      <path
         id="path27"
         d="m 102.9831,379.51974 c -0.836,-0.45471 -1.19367,-1.21951 -1.84948,-3.95478 -0.59137,-2.46652 -0.64777,-3.62071 -0.19885,-4.06963 0.21521,-0.21521 1.47253,-0.31898 3.9026,-0.32211 3.6494,-0.005 6.45792,-0.41407 7.87785,-1.14834 3.00927,-1.55615 4.12847,-5.42491 2.34779,-8.1157 -0.77524,-1.17147 -3.25548,-2.88472 -7.67744,-5.30325 -3.08719,-1.68849 -4.72963,-3.09343 -5.8972,-5.04436 -2.23359,-3.73219 -2.23359,-9.42539 0,-13.15339 1.24141,-2.07201 3.64797,-4.17971 6.13285,-5.37126 5.26011,-2.52227 10.78289,-2.3981 16.08302,0.36158 2.48677,1.29479 2.94874,1.98017 2.33159,3.45914 -0.19517,0.46773 -0.64345,1.68383 -0.99619,2.70248 -0.68743,1.98517 -1.357,2.77812 -2.34585,2.77812 -0.34046,0 -1.78579,-0.42256 -3.21184,-0.939 -5.74824,-2.0818 -9.76747,-1.32694 -10.66409,2.00287 -0.81025,3.00902 0.58088,4.94908 5.29316,7.38182 5.55447,2.8675 8.16182,5.00732 9.62875,7.90215 2.71811,5.36395 1.73127,11.20849 -2.62296,15.53446 -2.1214,2.10761 -4.04057,3.3298 -6.65826,4.24016 -3.78392,1.3159 -9.95593,1.8855 -11.47545,1.05904 z m 40.19555,-0.008 c -5.11352,-0.96613 -8.99837,-3.55309 -11.42926,-7.6109 -2.12352,-3.5447 -2.80288,-9.59872 -1.53473,-13.67634 0.82171,-2.64216 2.11093,-5.14318 3.58222,-6.94934 2.42332,-2.97489 6.9924,-5.27817 11.21531,-5.65367 7.74202,-0.68839 15.66549,6.44729 15.66549,14.10798 0,2.45235 -0.93653,3.9101 -2.91042,4.5302 -0.88029,0.27654 -9.05244,0.94567 -15.61041,1.2782 -1.67349,0.0849 -3.25107,0.26162 -3.50573,0.3928 -0.77404,0.39876 -0.54382,1.52152 0.62178,3.03234 2.14349,2.77839 4.91812,3.97994 8.59172,3.7207 2.70802,-0.19111 4.79313,-0.91686 6.99575,-2.43496 0.94782,-0.65325 1.98355,-1.18774 2.30164,-1.18774 0.99678,0 2.72192,2.78366 2.72192,4.39203 0,1.22672 -0.93448,2.31254 -3.09757,3.59924 -4.26117,2.53473 -8.83441,3.36129 -13.60771,2.45946 z m 3.51849,-20.2455 c 3.34157,-0.48633 4.66841,-0.80433 4.99425,-1.19695 0.56863,-0.68513 0.0511,-2.19075 -1.17427,-3.41608 -2.73479,-2.73482 -7.20324,-2.65878 -10.81563,0.18404 -1.76943,1.39248 -2.31441,3.36857 -1.22849,4.4545 0.50904,0.50903 0.76052,0.53874 3.41582,0.4033 1.57648,-0.0804 3.74022,-0.27336 4.80832,-0.42881 z m 56.84251,20.2665 c -3.68825,-0.77173 -6.2614,-2.19083 -8.73775,-4.81888 -3.23802,-3.43638 -4.47522,-6.43128 -4.68516,-11.34139 -0.16152,-3.77756 0.19388,-5.52836 1.77877,-8.76274 1.20619,-2.46155 3.29077,-4.7947 5.60801,-6.27671 4.29511,-2.74695 9.96649,-3.52112 14.29227,-1.95095 2.61344,0.94863 4.11018,1.92722 6.32514,4.13551 1.58553,1.58076 2.24097,2.48457 3.0863,4.25593 1.4655,3.07086 1.74722,4.57695 1.59156,8.50847 -0.21326,5.38628 -1.7857,9.00317 -5.373,12.35893 -3.48651,3.26144 -9.21962,4.86825 -13.88614,3.89183 z m 6.4106,-7.36028 c 2.43593,-1.02359 4.75622,-4.5108 5.22957,-7.85961 0.63428,-4.4873 -1.59727,-9.24787 -5.15735,-11.00219 -1.61506,-0.79587 -5.65864,-0.74123 -7.23984,0.0978 -2.79375,1.48249 -5.03255,4.97515 -5.26418,8.21243 -0.54253,7.58254 6.09353,13.21493 12.4318,10.55156 z m -35.2051,7.08432 c -4.12355,-0.93972 -8.29243,-3.85201 -10.23947,-7.15306 -3.02729,-5.13255 -3.28475,-12.07193 -0.6515,-17.55979 2.58199,-5.38099 8.61324,-9.0361 14.89861,-9.02898 3.10928,0.003 7.7492,1.45928 8.37438,2.62744 0.15038,0.28102 0.27343,1.21552 0.27343,2.07669 0,1.19639 -0.14346,1.77784 -0.60816,2.46478 -0.55778,0.82457 -0.71665,0.89773 -1.91822,0.88323 -0.72055,-0.009 -2.0197,-0.21704 -2.88702,-0.46302 -0.86732,-0.24598 -2.14278,-0.44723 -2.83435,-0.44723 -3.15952,0 -6.36404,2.27741 -8.07462,5.73853 -0.89648,1.81393 -0.98009,2.17233 -0.96648,4.14287 0.0174,2.52026 0.61774,4.3466 2.15314,6.55021 0.80908,1.1612 1.36397,1.61401 2.97203,2.42528 2.63738,1.33056 4.5284,1.53265 7.08232,0.75692 3.3108,-1.00563 4.16422,-0.6381 4.81471,2.07343 0.58835,2.45253 -0.29311,3.82498 -2.98705,4.6509 -1.95364,0.59896 -7.2724,0.74708 -9.40175,0.2618 z m 96.72572,0.10031 c -2.87295,-0.67702 -6.90944,-4.09181 -8.57389,-7.25329 -1.65718,-3.14764 -2.07451,-5.0904 -2.07451,-9.65729 0,-3.50227 0.0857,-4.37145 0.58682,-5.95313 1.31164,-4.13969 4.34886,-7.806 7.93364,-9.57694 l 2.03719,-1.00639 3.32013,0.0122 c 3.07083,0.0114 3.4857,0.0751 5.52503,0.84947 1.21269,0.46051 2.96988,1.26508 3.90487,1.78795 0.93498,0.52287 1.81802,0.87773 1.96229,0.78856 0.1639,-0.10128 0.26232,-3.1279 0.26232,-8.06677 0,-4.38325 0.11261,-8.20084 0.25278,-8.56951 0.44841,-1.17944 1.40326,-1.55504 4.58095,-1.80203 2.66059,-0.20677 2.98698,-0.18322 3.41689,0.2467 0.45229,0.45228 0.45942,0.95565 0.14724,10.39249 -0.3965,11.98584 -0.37983,25.82892 0.0382,31.68528 0.21017,2.94471 0.22202,4.46493 0.0375,4.80971 -0.35042,0.65476 -2.76484,1.16493 -4.81233,1.01682 -1.86671,-0.13502 -2.79653,-0.86419 -3.03949,-2.38358 -0.0891,-0.55737 -0.2548,-1.07072 -0.36816,-1.14078 -0.11337,-0.0701 -1.56713,0.58745 -3.23058,1.46116 -4.49564,2.36128 -8.51757,3.15825 -11.90686,2.35945 z m 9.39905,-7.34981 c 1.77249,-0.86701 3.58033,-2.77863 4.53715,-4.79758 0.74689,-1.57599 0.81412,-1.94287 0.80019,-4.3664 -0.0209,-3.64077 -0.64236,-5.20276 -3.01594,-7.58063 -1.9991,-2.00271 -3.44255,-2.6077 -6.21114,-2.60323 -5.15397,0.008 -9.46192,6.01091 -8.40247,11.70784 0.65424,3.518 3.23371,6.98328 5.93254,7.96975 1.67622,0.6127 4.75984,0.45281 6.35967,-0.32975 z m -52.03407,6.87816 c -0.42118,-0.0919 -1.00116,-0.48276 -1.28886,-0.86852 -0.5001,-0.67059 -0.5252,-1.19917 -0.57153,-12.03854 -0.0404,-9.45317 -0.12295,-11.71088 -0.49672,-13.58612 -0.9869,-4.95141 -0.82499,-5.12289 5.4,-5.7191 1.62871,-0.15597 1.77761,-0.12504 2.18281,0.45347 0.23919,0.34147 0.43488,0.95941 0.43488,1.37313 0,0.94147 0.43172,1.77583 0.91888,1.77583 0.2041,0 1.48802,-0.75729 2.85316,-1.68285 3.65576,-2.47859 4.94809,-2.91616 8.66338,-2.9333 2.74118,-0.0127 3.18811,0.0542 4.50998,0.67415 1.8346,0.86051 3.30518,2.1358 3.97353,3.44586 1.16722,2.28796 1.24932,3.26324 1.34075,15.92683 l 0.0872,12.08167 -0.5972,0.59745 c -0.54722,0.54748 -0.83957,0.59749 -3.49263,0.59749 -2.65935,0 -2.9446,-0.0491 -3.49864,-0.60219 l -0.60323,-0.60217 -0.13229,-10.77492 -0.1323,-10.77489 -0.73901,-1.25722 c -1.01677,-1.72971 -2.37175,-2.40692 -4.53085,-2.26449 -3.03782,0.2004 -5.98369,2.12995 -7.2521,4.75012 -0.55703,1.15067 -0.57491,1.47949 -0.57491,10.57021 0,10.4603 0.0256,10.30623 -1.79374,10.81151 -1.05914,0.29414 -3.41826,0.31774 -4.66059,0.0466 z M 98.644009,328.06874 c -0.271999,41.42744 -0.136,20.71372 0,0 z"
         style="fill:#c0670e;stroke-width:0.26458332" />
      <path
         id="path25"
         d="m 102.9831,379.51974 c -0.836,-0.45471 -1.19367,-1.21951 -1.84948,-3.95478 -0.59137,-2.46652 -0.64777,-3.62071 -0.19885,-4.06963 0.21521,-0.21521 1.47253,-0.31898 3.9026,-0.32211 3.6494,-0.005 6.45792,-0.41407 7.87785,-1.14834 3.00927,-1.55615 4.12847,-5.42491 2.34779,-8.1157 -0.77524,-1.17147 -3.25548,-2.88472 -7.67744,-5.30325 -3.08719,-1.68849 -4.72963,-3.09343 -5.8972,-5.04436 -2.23359,-3.73219 -2.23359,-9.42539 0,-13.15339 1.24141,-2.07201 3.64797,-4.17971 6.13285,-5.37126 5.26011,-2.52227 10.78289,-2.3981 16.08302,0.36158 2.48677,1.29479 2.94874,1.98017 2.33159,3.45914 -0.19517,0.46773 -0.64345,1.68383 -0.99619,2.70248 -0.68743,1.98517 -1.357,2.77812 -2.34585,2.77812 -0.34046,0 -1.78579,-0.42256 -3.21184,-0.939 -5.74824,-2.0818 -9.76747,-1.32694 -10.66409,2.00287 -0.81025,3.00902 0.58088,4.94908 5.29316,7.38182 5.55447,2.8675 8.16182,5.00732 9.62875,7.90215 2.71811,5.36395 1.73127,11.20849 -2.62296,15.53446 -2.1214,2.10761 -4.04057,3.3298 -6.65826,4.24016 -3.78392,1.3159 -9.95593,1.8855 -11.47545,1.05904 z m 40.19555,-0.008 c -5.11352,-0.96613 -8.99837,-3.55309 -11.42926,-7.6109 -2.12352,-3.5447 -2.80288,-9.59872 -1.53473,-13.67634 0.82171,-2.64216 2.11093,-5.14318 3.58222,-6.94934 2.42332,-2.97489 6.9924,-5.27817 11.21531,-5.65367 7.74202,-0.68839 15.66549,6.44729 15.66549,14.10798 0,2.45235 -0.93653,3.9101 -2.91042,4.5302 -0.88029,0.27654 -9.05244,0.94567 -15.61041,1.2782 -1.67349,0.0849 -3.25107,0.26162 -3.50573,0.3928 -0.77404,0.39876 -0.54382,1.52152 0.62178,3.03234 2.14349,2.77839 4.91812,3.97994 8.59172,3.7207 2.70802,-0.19111 4.79313,-0.91686 6.99575,-2.43496 0.94782,-0.65325 1.98355,-1.18774 2.30164,-1.18774 0.99678,0 2.72192,2.78366 2.72192,4.39203 0,1.22672 -0.93448,2.31254 -3.09757,3.59924 -4.26117,2.53473 -8.83441,3.36129 -13.60771,2.45946 z m 3.51849,-20.2455 c 3.34157,-0.48633 4.66841,-0.80433 4.99425,-1.19695 0.56863,-0.68513 0.0511,-2.19075 -1.17427,-3.41608 -2.73479,-2.73482 -7.20324,-2.65878 -10.81563,0.18404 -1.76943,1.39248 -2.31441,3.36857 -1.22849,4.4545 0.50904,0.50903 0.76052,0.53874 3.41582,0.4033 1.57648,-0.0804 3.74022,-0.27336 4.80832,-0.42881 z m 56.84251,20.2665 c -3.68825,-0.77173 -6.2614,-2.19083 -8.73775,-4.81888 -3.23802,-3.43638 -4.47522,-6.43128 -4.68516,-11.34139 -0.16152,-3.77756 0.19388,-5.52836 1.77877,-8.76274 1.20619,-2.46155 3.29077,-4.7947 5.60801,-6.27671 4.29511,-2.74695 9.96649,-3.52112 14.29227,-1.95095 2.61344,0.94863 4.11018,1.92722 6.32514,4.13551 1.58553,1.58076 2.24097,2.48457 3.0863,4.25593 1.4655,3.07086 1.74722,4.57695 1.59156,8.50847 -0.21326,5.38628 -1.7857,9.00317 -5.373,12.35893 -3.48651,3.26144 -9.21962,4.86825 -13.88614,3.89183 z m 6.4106,-7.36028 c 2.43593,-1.02359 4.75622,-4.5108 5.22957,-7.85961 0.63428,-4.4873 -1.59727,-9.24787 -5.15735,-11.00219 -1.61506,-0.79587 -5.65864,-0.74123 -7.23984,0.0978 -2.79375,1.48249 -5.03255,4.97515 -5.26418,8.21243 -0.54253,7.58254 6.09353,13.21493 12.4318,10.55156 z m -35.2051,7.08432 c -4.12355,-0.93972 -8.29243,-3.85201 -10.23947,-7.15306 -3.02729,-5.13255 -3.28475,-12.07193 -0.6515,-17.55979 2.58199,-5.38099 8.61324,-9.0361 14.89861,-9.02898 3.10928,0.003 7.7492,1.45928 8.37438,2.62744 0.15038,0.28102 0.27343,1.21552 0.27343,2.07669 0,1.19639 -0.14346,1.77784 -0.60816,2.46478 -0.55778,0.82457 -0.71665,0.89773 -1.91822,0.88323 -0.72055,-0.009 -2.0197,-0.21704 -2.88702,-0.46302 -0.86732,-0.24598 -2.14278,-0.44723 -2.83435,-0.44723 -3.15952,0 -6.36404,2.27741 -8.07462,5.73853 -0.89648,1.81393 -0.98009,2.17233 -0.96648,4.14287 0.0174,2.52026 0.61774,4.3466 2.15314,6.55021 0.80908,1.1612 1.36397,1.61401 2.97203,2.42528 2.63738,1.33056 4.5284,1.53265 7.08232,0.75692 3.3108,-1.00563 4.16422,-0.6381 4.81471,2.07343 0.58835,2.45253 -0.29311,3.82498 -2.98705,4.6509 -1.95364,0.59896 -7.2724,0.74708 -9.40175,0.2618 z m 96.72572,0.10031 c -2.87295,-0.67702 -6.90944,-4.09181 -8.57389,-7.25329 -1.65718,-3.14764 -2.07451,-5.0904 -2.07451,-9.65729 0,-3.50227 0.0857,-4.37145 0.58682,-5.95313 1.31164,-4.13969 4.34886,-7.806 7.93364,-9.57694 l 2.03719,-1.00639 3.32013,0.0122 c 3.07083,0.0114 3.4857,0.0751 5.52503,0.84947 1.21269,0.46051 2.96988,1.26508 3.90487,1.78795 0.93498,0.52287 1.81802,0.87773 1.96229,0.78856 0.1639,-0.10128 0.26232,-3.1279 0.26232,-8.06677 0,-4.38325 0.11261,-8.20084 0.25278,-8.56951 0.44841,-1.17944 1.40326,-1.55504 4.58095,-1.80203 2.66059,-0.20677 2.98698,-0.18322 3.41689,0.2467 0.45229,0.45228 0.45942,0.95565 0.14724,10.39249 -0.3965,11.98584 -0.37983,25.82892 0.0382,31.68528 0.21017,2.94471 0.22202,4.46493 0.0375,4.80971 -0.35042,0.65476 -2.76484,1.16493 -4.81233,1.01682 -1.86671,-0.13502 -2.79653,-0.86419 -3.03949,-2.38358 -0.0891,-0.55737 -0.2548,-1.07072 -0.36816,-1.14078 -0.11337,-0.0701 -1.56713,0.58745 -3.23058,1.46116 -4.49564,2.36128 -8.51757,3.15825 -11.90686,2.35945 z m 9.39905,-7.34981 c 1.77249,-0.86701 3.58033,-2.77863 4.53715,-4.79758 0.74689,-1.57599 0.81412,-1.94287 0.80019,-4.3664 -0.0209,-3.64077 -0.64236,-5.20276 -3.01594,-7.58063 -1.9991,-2.00271 -3.44255,-2.6077 -6.21114,-2.60323 -5.15397,0.008 -9.46192,6.01091 -8.40247,11.70784 0.65424,3.518 3.23371,6.98328 5.93254,7.96975 1.67622,0.6127 4.75984,0.45281 6.35967,-0.32975 z m -52.03407,6.87816 c -0.42118,-0.0919 -1.00116,-0.48276 -1.28886,-0.86852 -0.5001,-0.67059 -0.5252,-1.19917 -0.57153,-12.03854 -0.0404,-9.45317 -0.12295,-11.71088 -0.49672,-13.58612 -0.9869,-4.95141 -0.82499,-5.12289 5.4,-5.7191 1.62871,-0.15597 1.77761,-0.12504 2.18281,0.45347 0.23919,0.34147 0.43488,0.95941 0.43488,1.37313 0,0.94147 0.43172,1.77583 0.91888,1.77583 0.2041,0 1.48802,-0.75729 2.85316,-1.68285 3.65576,-2.47859 4.94809,-2.91616 8.66338,-2.9333 2.74118,-0.0127 3.18811,0.0542 4.50998,0.67415 1.8346,0.86051 3.30518,2.1358 3.97353,3.44586 1.16722,2.28796 1.24932,3.26324 1.34075,15.92683 l 0.0872,12.08167 -0.5972,0.59745 c -0.54722,0.54748 -0.83957,0.59749 -3.49263,0.59749 -2.65935,0 -2.9446,-0.0491 -3.49864,-0.60219 l -0.60323,-0.60217 -0.13229,-10.77492 -0.1323,-10.77489 -0.73901,-1.25722 c -1.01677,-1.72971 -2.37175,-2.40692 -4.53085,-2.26449 -3.03782,0.2004 -5.98369,2.12995 -7.2521,4.75012 -0.55703,1.15067 -0.57491,1.47949 -0.57491,10.57021 0,10.4603 0.0256,10.30623 -1.79374,10.81151 -1.05914,0.29414 -3.41826,0.31774 -4.66059,0.0466 z M 98.644009,328.06874 c -0.271999,41.42744 -0.136,20.71372 0,0 z"
         style="fill:#5a6060;stroke-width:0.26458332" />
      <path
         id="path23"
         d="m 103.34467,379.37737 c -0.80858,-0.3257 -1.28059,-1.17226 -1.76995,-3.17452 -0.68539,-2.80427 -0.7983,-4.07985 -0.39044,-4.41108 0.21428,-0.17405 2.1191,-0.33983 4.72465,-0.41122 3.71708,-0.10184 4.59486,-0.20844 5.90867,-0.71747 2.86026,-1.10818 4.41008,-3.14542 4.41008,-5.79705 0,-2.74738 -1.46596,-4.39285 -6.37867,-7.15965 -4.44765,-2.50489 -5.39403,-3.12602 -6.59896,-4.33094 -1.99901,-1.999 -3.16195,-5.14413 -3.16195,-8.55138 0,-7.22472 6.01818,-12.75324 14.41979,-13.24653 2.95334,-0.17338 5.3857,0.3061 8.23808,1.62399 3.28625,1.51834 3.8697,2.40609 2.76736,4.21071 -0.27717,0.45374 -0.69335,1.46984 -0.92485,2.25803 -0.77841,2.65023 -1.36917,2.85848 -4.59902,1.62111 -6.14068,-2.35252 -10.2463,-1.62796 -11.4505,2.02083 -0.45419,1.37621 -0.16704,3.1423 0.71428,4.39314 0.73929,1.04926 1.43028,1.48889 8.68756,5.5272 5.30411,2.95148 8.06841,9.03931 6.62346,14.58685 -0.64124,2.4619 -1.66702,4.15687 -3.80899,6.29383 -2.98401,2.97704 -6.36698,4.51811 -11.53905,5.2564 -2.25092,0.32134 -5.08379,0.32507 -5.87155,0.008 z m 40.58247,-0.0222 c -2.2786,-0.33319 -5.69063,-1.59134 -7.40912,-2.73201 -4.17747,-2.77284 -6.6054,-7.73666 -6.61059,-13.51516 -0.007,-7.96089 4.74505,-14.50305 12.11713,-16.68113 2.09943,-0.62029 5.59115,-0.62569 7.67291,-0.0119 6.08383,1.79383 10.69948,7.53642 10.71249,13.32807 0.005,2.45552 -0.87139,3.74745 -2.90728,4.28324 -0.81594,0.21471 -7.88666,0.78181 -16.11226,1.29225 -2.5644,0.15914 -2.78573,0.21762 -3.2663,0.8628 -0.47936,0.6436 -0.4866,0.74798 -0.10321,1.48937 0.7689,1.48691 3.06775,3.72793 4.58617,4.47082 1.74408,0.85328 4.89724,1.13398 7.25058,0.64543 1.78945,-0.37148 4.25255,-1.52326 5.63088,-2.63308 1.49516,-1.20386 2.06497,-1.10181 3.08266,0.55216 2.00568,3.25964 1.09901,4.8319 -4.20034,7.28376 -3.287,1.52083 -6.50431,1.94144 -10.44372,1.36536 z m 1.08224,-19.54348 c 0.73549,-0.13949 2.29883,-0.37417 3.47409,-0.52155 3.44497,-0.43195 4.30497,-1.14913 3.5467,-2.95764 -0.98047,-2.33849 -3.60917,-3.93335 -6.48996,-3.93753 -2.56585,-0.004 -4.4306,0.76872 -6.34136,2.62689 -1.43932,1.3997 -1.53992,1.57753 -1.53992,2.72211 0,1.0078 0.12341,1.32165 0.69714,1.77295 0.58434,0.45966 1.07081,0.54837 3.0066,0.54837 1.2702,0 2.91122,-0.11411 3.64671,-0.2536 z m 59.427,19.57742 c -6.26783,-0.95996 -11.45019,-5.3754 -13.36403,-11.38632 -0.77418,-2.43149 -0.9579,-6.94131 -0.38234,-9.3854 1.42189,-6.03798 5.9472,-10.62696 12.05642,-12.226 2.54452,-0.66604 6.53308,-0.59293 8.73125,0.16002 4.68873,1.60605 8.39459,5.22256 10.22536,9.97881 1.39981,3.63667 1.08915,9.93945 -0.67635,13.72153 -1.5792,3.38302 -4.3575,6.23904 -7.44258,7.65077 -2.7806,1.27239 -6.54843,1.88471 -9.14773,1.48659 z m 5.7142,-6.95132 c 2.56285,-1.2387 4.73046,-4.47172 5.31077,-7.92112 0.74761,-4.44389 -1.3315,-9.11063 -5.02678,-11.28308 -1.09063,-0.64119 -1.45865,-0.70892 -3.85168,-0.70892 -2.2959,0 -2.81603,0.0869 -3.93262,0.6572 -1.63065,0.83283 -3.62365,3.00286 -4.56069,4.9658 -2.16607,4.53761 -0.22377,11.23297 3.97195,13.69182 2.57955,1.51172 5.71874,1.7439 8.08905,0.5983 z m -35.1854,6.53177 c -3.79693,-0.81314 -7.75724,-3.39659 -9.84667,-6.42334 -1.90834,-2.76437 -3.02,-7.18979 -2.76837,-11.02053 0.47666,-7.25638 4.56567,-12.71344 11.13909,-14.86588 1.80888,-0.59232 2.60508,-0.6999 5.18012,-0.6999 2.58564,0 3.36858,0.10665 5.21201,0.70995 2.6432,0.86506 3.25465,1.50112 3.25465,3.38551 0,1.79022 -0.57517,3.06588 -1.48536,3.29432 -0.44878,0.11264 -1.55697,-0.0355 -2.899,-0.38745 -3.09592,-0.81201 -4.87872,-0.75589 -6.93813,0.21838 -4.12845,1.95308 -6.73737,6.82065 -5.94356,11.08914 1.18161,6.35379 6.59115,9.90621 12.58209,8.26262 2.62332,-0.71972 3.2502,-0.71133 3.74907,0.05 0.68576,1.04658 0.98146,3.26347 0.56747,4.25428 -0.85072,2.03605 -7.03627,3.15378 -11.80341,2.13286 z m 96.35712,0.0151 c -4.30482,-1.21348 -8.27109,-5.6851 -9.74067,-10.98179 -0.36517,-1.31615 -0.47475,-2.65129 -0.46689,-5.68854 0.009,-3.57312 0.0806,-4.1818 0.71599,-6.10593 1.13588,-3.43987 3.92123,-6.97507 6.81364,-8.64801 2.61745,-1.51386 6.10925,-1.91725 9.4914,-1.09648 0.95519,0.2318 3.09903,1.0692 4.7641,1.86089 1.66506,0.79169 3.18311,1.37967 3.37343,1.30662 0.27456,-0.10536 0.34604,-1.80414 0.34604,-8.22402 0,-9.17771 0.0483,-9.44451 1.78771,-9.88224 0.54473,-0.13708 2.03661,-0.30713 3.31529,-0.37793 1.85653,-0.10277 2.40622,-0.0473 2.72868,0.27511 0.43953,0.43953 0.44152,0.27456 -0.20465,16.98996 -0.31494,8.14692 -0.17057,19.818 0.31924,25.80828 0.27221,3.32914 0.26372,3.45379 -0.26444,3.88194 -0.63692,0.51633 -3.53943,0.88937 -4.91378,0.63153 -1.24985,-0.23447 -1.92843,-0.95843 -2.14031,-2.28346 -0.21572,-1.34908 -0.67101,-1.54083 -1.90932,-0.80409 -2.02156,1.20274 -4.49112,2.38241 -6.13782,2.932 -2.25323,0.752 -5.97065,0.94364 -7.87764,0.40611 z m 9.6574,-6.77672 c 3.16247,-1.51053 5.31944,-4.78012 5.57057,-8.44401 0.30889,-4.50671 -1.69465,-8.47842 -5.27858,-10.46396 -1.28559,-0.71223 -1.6141,-0.77517 -4.04505,-0.77517 -2.39303,0 -2.76105,0.0677 -3.85168,0.70892 -3.66906,2.15702 -5.8236,6.91076 -5.0854,11.22032 0.91488,5.34101 5.25334,9.15109 9.86312,8.66187 0.65484,-0.0695 1.927,-0.47807 2.82702,-0.90797 z m -52.02659,6.37376 c -0.94342,-0.22209 -1.58925,-0.8487 -1.61549,-1.56736 -0.008,-0.22686 -0.0383,-5.35355 -0.0667,-11.39267 -0.0451,-9.58159 -0.11622,-11.31755 -0.55876,-13.62855 -0.53596,-2.79877 -0.45528,-3.9116 0.30749,-4.24125 0.48358,-0.20899 2.31156,-0.51363 4.85876,-0.80976 1.35597,-0.15764 1.52034,-0.11916 1.91823,0.4489 0.23935,0.34173 0.43519,0.92553 0.43519,1.29733 0,0.84095 0.6823,1.85208 1.24975,1.85208 0.2343,0 1.65261,-0.82772 3.15179,-1.83938 3.04067,-2.0519 4.56102,-2.62327 7.57516,-2.84689 3.55396,-0.26366 6.94668,1.09233 8.51772,3.40431 1.52356,2.24213 1.55502,2.52743 1.7311,15.70175 0.0895,6.69396 0.0721,12.43156 -0.0386,12.75022 -0.25159,0.72422 -1.6377,1.13694 -3.82503,1.13893 -1.88952,0.003 -3.18747,-0.38841 -3.55079,-1.06728 -0.15588,-0.29128 -0.259,-4.47728 -0.259,-10.51346 0,-11.14414 -0.0887,-11.87452 -1.63561,-13.47054 -1.17907,-1.21651 -3.13576,-1.78901 -4.82246,-1.411 -2.9105,0.65225 -5.46686,2.51558 -6.61661,4.82282 l -0.68365,1.37192 v 9.22586 c 0,6.10278 -0.0968,9.40668 -0.28588,9.76003 -0.59765,1.1167 -3.3223,1.59415 -5.78661,1.01399 z M 98.926328,327.83286 c -0.460212,41.5847 -0.230106,20.79235 0,0 z"
         style="fill:#010a0a;stroke-width:0.26458332" />
    </g>
  </g>
</svg>
